<svg width="11814" height="300" viewBox="0 0 11814 300" fill="none" xmlns="http://www.w3.org/2000/svg">
<rect width="11814" height="300" fill="#E4F046"/>
<path d="M310.844 79.625L381.554 150.336L310.844 221.046L289.631 199.833L339.128 150.336L289.631 100.838L310.844 79.625Z" fill="#231F20"/>
<path d="M249.422 79.625L320.133 150.336L249.422 221.046L228.209 199.833L277.706 150.336L228.209 100.838L249.422 79.625Z" fill="#231F20"/>
<path d="M188 79.625L258.711 150.336L188 221.046L166.787 199.833L216.284 150.336L166.787 100.838L188 79.625Z" fill="#231F20"/>
<path d="M152.711 79.625L223.422 150.336L152.711 221.046L131.498 199.833L180.995 150.336L131.498 100.838L152.711 79.625Z" fill="#231F20"/>
<path d="M88 79.625H188V220.625H88V79.625Z" fill="#231F20"/>
<path d="M505.155 112.692H487.235C486.381 112.692 485.656 112.991 485.059 113.588C484.461 114.185 484.163 114.911 484.163 115.764V179.764C484.163 180.617 483.864 181.343 483.267 181.94C482.755 182.537 482.029 182.836 481.091 182.836H461.891C461.037 182.836 460.312 182.537 459.715 181.94C459.117 181.343 458.819 180.617 458.819 179.764V115.764C458.819 114.911 458.52 114.185 457.923 113.588C457.411 112.991 456.685 112.692 455.747 112.692H437.571C436.717 112.692 435.992 112.393 435.395 111.796C434.797 111.199 434.499 110.473 434.499 109.62V92.2119C434.499 91.3586 434.797 90.6333 435.395 90.0359C435.992 89.4386 436.717 89.1399 437.571 89.1399H505.155C506.093 89.1399 506.819 89.4386 507.331 90.0359C507.928 90.6333 508.227 91.3586 508.227 92.2119V109.62C508.227 110.473 507.928 111.199 507.331 111.796C506.819 112.393 506.093 112.692 505.155 112.692ZM543.308 115.764V121.14C543.308 121.993 543.606 122.719 544.204 123.316C544.801 123.913 545.526 124.212 546.38 124.212H581.068C581.921 124.212 582.646 124.511 583.244 125.108C583.841 125.705 584.14 126.431 584.14 127.284V144.948C584.14 145.801 583.841 146.527 583.244 147.124C582.646 147.721 581.921 148.02 581.068 148.02H546.38C545.526 148.02 544.801 148.319 544.204 148.916C543.606 149.513 543.308 150.239 543.308 151.092V155.956C543.308 156.809 543.606 157.535 544.204 158.132C544.801 158.729 545.526 159.028 546.38 159.028H586.188C587.041 159.028 587.766 159.327 588.364 159.924C588.961 160.521 589.26 161.247 589.26 162.1V179.764C589.26 180.617 588.961 181.343 588.364 181.94C587.766 182.537 587.041 182.836 586.188 182.836H521.036C520.182 182.836 519.457 182.537 518.86 181.94C518.262 181.343 517.964 180.617 517.964 179.764V92.2119C517.964 91.3586 518.262 90.6333 518.86 90.0359C519.457 89.4386 520.182 89.1399 521.036 89.1399H586.188C587.041 89.1399 587.766 89.4386 588.364 90.0359C588.961 90.6333 589.26 91.3586 589.26 92.2119V109.62C589.26 110.473 588.961 111.199 588.364 111.796C587.766 112.393 587.041 112.692 586.188 112.692H546.38C545.526 112.692 544.801 112.991 544.204 113.588C543.606 114.185 543.308 114.911 543.308 115.764ZM693.463 157.876C690.988 161.887 688.257 165.556 685.271 168.884C682.284 172.127 678.913 174.9 675.159 177.204C671.489 179.508 667.393 181.3 662.871 182.58C658.348 183.86 653.356 184.5 647.895 184.5C641.068 184.5 634.668 183.22 628.695 180.66C622.721 178.1 617.473 174.644 612.951 170.292C608.513 165.94 605.015 160.82 602.455 154.932C599.895 149.044 598.615 142.772 598.615 136.116C598.615 129.46 599.895 123.188 602.455 117.3C605.015 111.412 608.513 106.292 612.951 101.94C617.473 97.5879 622.721 94.1319 628.695 91.5719C634.668 89.0119 641.068 87.7319 647.895 87.7319C653.527 87.7319 658.604 88.3719 663.127 89.6519C667.649 90.9319 671.745 92.7239 675.415 95.0279C679.084 97.3319 682.369 100.148 685.271 103.476C688.257 106.719 690.988 110.303 693.463 114.228C693.889 114.911 693.975 115.636 693.719 116.404C693.463 117.172 692.951 117.727 692.183 118.068L674.007 125.236C673.153 125.577 672.3 125.577 671.447 125.236C670.593 124.895 669.953 124.383 669.527 123.7C667.052 119.775 664.065 116.788 660.567 114.74C657.068 112.607 652.844 111.54 647.895 111.54C644.652 111.54 641.58 112.223 638.679 113.588C635.863 114.953 633.388 116.788 631.255 119.092C629.121 121.311 627.457 123.913 626.263 126.9C625.068 129.887 624.471 132.959 624.471 136.116C624.471 139.359 625.068 142.473 626.263 145.46C627.457 148.361 629.121 150.921 631.255 153.14C633.388 155.359 635.863 157.151 638.679 158.516C641.58 159.881 644.652 160.564 647.895 160.564C652.588 160.564 656.812 159.455 660.567 157.236C664.407 154.932 667.436 151.988 669.655 148.404C670.081 147.721 670.679 147.209 671.447 146.868C672.3 146.527 673.153 146.527 674.007 146.868L692.183 154.036C692.951 154.377 693.463 154.932 693.719 155.7C693.975 156.383 693.889 157.108 693.463 157.876ZM786.548 92.2119V179.764C786.548 180.617 786.249 181.343 785.652 181.94C785.054 182.537 784.329 182.836 783.476 182.836H764.276C763.337 182.836 762.569 182.537 761.972 181.94C761.46 181.343 761.204 180.617 761.204 179.764V152.372C761.204 151.519 760.905 150.793 760.308 150.196C759.71 149.599 758.985 149.3 758.132 149.3H731.764C730.825 149.3 730.057 149.599 729.46 150.196C728.948 150.793 728.692 151.519 728.692 152.372V179.764C728.692 180.617 728.393 181.343 727.796 181.94C727.198 182.537 726.473 182.836 725.62 182.836H706.548C705.609 182.836 704.841 182.537 704.244 181.94C703.732 181.343 703.476 180.617 703.476 179.764V92.2119C703.476 91.3586 703.732 90.6333 704.244 90.0359C704.841 89.4386 705.609 89.1399 706.548 89.1399H725.62C726.473 89.1399 727.198 89.4386 727.796 90.0359C728.393 90.6333 728.692 91.3586 728.692 92.2119V122.548C728.692 123.401 728.948 124.127 729.46 124.724C730.057 125.321 730.825 125.62 731.764 125.62H758.132C758.985 125.62 759.71 125.321 760.308 124.724C760.905 124.127 761.204 123.401 761.204 122.548V92.2119C761.204 91.3586 761.46 90.6333 761.972 90.0359C762.569 89.4386 763.337 89.1399 764.276 89.1399H783.476C784.329 89.1399 785.054 89.4386 785.652 90.0359C786.249 90.6333 786.548 91.3586 786.548 92.2119ZM869.953 170.548C869.953 172.34 869.611 174.047 868.929 175.668C868.246 177.289 867.307 178.697 866.113 179.892C864.918 181.087 863.51 182.025 861.889 182.708C860.267 183.391 858.561 183.732 856.769 183.732C854.977 183.732 853.27 183.391 851.649 182.708C850.113 182.025 848.747 181.087 847.553 179.892C846.358 178.697 845.419 177.289 844.737 175.668C844.054 174.047 843.713 172.34 843.713 170.548C843.713 168.756 844.054 167.092 844.737 165.556C845.419 164.02 846.358 162.655 847.553 161.46C848.747 160.265 850.113 159.327 851.649 158.644C853.27 157.961 854.977 157.62 856.769 157.62C858.561 157.62 860.267 157.961 861.889 158.644C863.51 159.327 864.918 160.265 866.113 161.46C867.307 162.655 868.246 164.02 868.929 165.556C869.611 167.092 869.953 168.756 869.953 170.548ZM1013.21 157.876C1010.74 161.887 1008.01 165.556 1005.02 168.884C1002.03 172.127 998.663 174.9 994.909 177.204C991.239 179.508 987.143 181.3 982.621 182.58C978.098 183.86 973.106 184.5 967.645 184.5C960.818 184.5 954.418 183.22 948.445 180.66C942.471 178.1 937.223 174.644 932.701 170.292C928.263 165.94 924.765 160.82 922.205 154.932C919.645 149.044 918.365 142.772 918.365 136.116C918.365 129.46 919.645 123.188 922.205 117.3C924.765 111.412 928.263 106.292 932.701 101.94C937.223 97.5879 942.471 94.1319 948.445 91.5719C954.418 89.0119 960.818 87.7319 967.645 87.7319C973.277 87.7319 978.354 88.3719 982.877 89.6519C987.399 90.9319 991.495 92.7239 995.165 95.0279C998.834 97.3319 1002.12 100.148 1005.02 103.476C1008.01 106.719 1010.74 110.303 1013.21 114.228C1013.64 114.911 1013.72 115.636 1013.47 116.404C1013.21 117.172 1012.7 117.727 1011.93 118.068L993.757 125.236C992.903 125.577 992.05 125.577 991.197 125.236C990.343 124.895 989.703 124.383 989.277 123.7C986.802 119.775 983.815 116.788 980.317 114.74C976.818 112.607 972.594 111.54 967.645 111.54C964.402 111.54 961.33 112.223 958.429 113.588C955.613 114.953 953.138 116.788 951.005 119.092C948.871 121.311 947.207 123.913 946.013 126.9C944.818 129.887 944.221 132.959 944.221 136.116C944.221 139.359 944.818 142.473 946.013 145.46C947.207 148.361 948.871 150.921 951.005 153.14C953.138 155.359 955.613 157.151 958.429 158.516C961.33 159.881 964.402 160.564 967.645 160.564C972.338 160.564 976.562 159.455 980.317 157.236C984.157 154.932 987.186 151.988 989.405 148.404C989.831 147.721 990.429 147.209 991.197 146.868C992.05 146.527 992.903 146.527 993.757 146.868L1011.93 154.036C1012.7 154.377 1013.21 154.932 1013.47 155.7C1013.72 156.383 1013.64 157.108 1013.21 157.876ZM1018.75 135.988C1018.75 129.332 1020.03 123.06 1022.59 117.172C1025.15 111.284 1028.6 106.164 1032.95 101.812C1037.31 97.3746 1042.43 93.8759 1048.31 91.3159C1054.2 88.7559 1060.47 87.4759 1067.13 87.4759C1073.79 87.4759 1080.06 88.7559 1085.95 91.3159C1091.83 93.8759 1096.95 97.3746 1101.31 101.812C1105.74 106.164 1109.24 111.284 1111.8 117.172C1114.36 123.06 1115.64 129.332 1115.64 135.988C1115.64 142.644 1114.36 148.916 1111.8 154.804C1109.24 160.692 1105.74 165.855 1101.31 170.292C1096.95 174.644 1091.83 178.1 1085.95 180.66C1080.06 183.22 1073.79 184.5 1067.13 184.5C1060.47 184.5 1054.2 183.22 1048.31 180.66C1042.43 178.1 1037.31 174.644 1032.95 170.292C1028.6 165.855 1025.15 160.692 1022.59 154.804C1020.03 148.916 1018.75 142.644 1018.75 135.988ZM1044.09 135.988C1044.09 139.231 1044.69 142.303 1045.88 145.204C1047.08 148.105 1048.7 150.665 1050.75 152.884C1052.88 155.103 1055.35 156.895 1058.17 158.26C1060.99 159.54 1063.97 160.18 1067.13 160.18C1070.29 160.18 1073.27 159.54 1076.09 158.26C1078.91 156.895 1081.38 155.103 1083.51 152.884C1085.65 150.665 1087.31 148.105 1088.51 145.204C1089.7 142.303 1090.3 139.231 1090.3 135.988C1090.3 132.831 1089.7 129.801 1088.51 126.9C1087.31 123.913 1085.65 121.353 1083.51 119.22C1081.38 117.001 1078.91 115.252 1076.09 113.972C1073.27 112.607 1070.29 111.924 1067.13 111.924C1063.97 111.924 1060.99 112.607 1058.17 113.972C1055.35 115.252 1052.88 117.001 1050.75 119.22C1048.7 121.353 1047.08 123.913 1045.88 126.9C1044.69 129.801 1044.09 132.831 1044.09 135.988ZM1233.42 92.3399V179.764C1233.42 180.617 1233.12 181.343 1232.52 181.94C1231.92 182.537 1231.2 182.836 1230.35 182.836H1211.02C1210.16 182.836 1209.44 182.537 1208.84 181.94C1208.24 181.343 1207.95 180.617 1207.95 179.764V138.548C1207.95 137.695 1207.56 137.225 1206.79 137.14C1206.03 137.055 1205.39 137.353 1204.87 138.036L1183.37 172.724C1182.94 173.407 1182.26 173.748 1181.32 173.748C1180.38 173.748 1179.66 173.407 1179.15 172.724L1157.64 138.036C1157.22 137.353 1156.62 137.055 1155.85 137.14C1155.08 137.225 1154.7 137.695 1154.7 138.548V179.764C1154.7 180.617 1154.4 181.343 1153.8 181.94C1153.2 182.537 1152.48 182.836 1151.63 182.836H1132.3C1131.44 182.836 1130.72 182.537 1130.12 181.94C1129.52 181.343 1129.23 180.617 1129.23 179.764V92.3399C1129.23 91.4866 1129.52 90.7613 1130.12 90.1639C1130.72 89.5666 1131.44 89.2679 1132.3 89.2679H1150.22C1151.07 89.2679 1151.97 89.5239 1152.91 90.0359C1153.84 90.5479 1154.53 91.1453 1154.95 91.8279L1179.53 127.924C1180.04 128.607 1180.64 128.948 1181.32 128.948C1182 128.948 1182.56 128.607 1182.99 127.924L1207.56 91.8279C1208.07 91.1453 1208.8 90.5479 1209.74 90.0359C1210.68 89.5239 1211.57 89.2679 1212.43 89.2679H1230.35C1231.2 89.2679 1231.92 89.5666 1232.52 90.1639C1233.12 90.7613 1233.42 91.4866 1233.42 92.3399ZM1358.17 92.3399V179.764C1358.17 180.617 1357.87 181.343 1357.27 181.94C1356.67 182.537 1355.95 182.836 1355.1 182.836H1335.77C1334.91 182.836 1334.19 182.537 1333.59 181.94C1332.99 181.343 1332.7 180.617 1332.7 179.764V138.548C1332.7 137.695 1332.31 137.225 1331.54 137.14C1330.78 137.055 1330.14 137.353 1329.62 138.036L1308.12 172.724C1307.69 173.407 1307.01 173.748 1306.07 173.748C1305.13 173.748 1304.41 173.407 1303.9 172.724L1282.39 138.036C1281.97 137.353 1281.37 137.055 1280.6 137.14C1279.83 137.225 1279.45 137.695 1279.45 138.548V179.764C1279.45 180.617 1279.15 181.343 1278.55 181.94C1277.95 182.537 1277.23 182.836 1276.38 182.836H1257.05C1256.19 182.836 1255.47 182.537 1254.87 181.94C1254.27 181.343 1253.98 180.617 1253.98 179.764V92.3399C1253.98 91.4866 1254.27 90.7613 1254.87 90.1639C1255.47 89.5666 1256.19 89.2679 1257.05 89.2679H1274.97C1275.82 89.2679 1276.72 89.5239 1277.66 90.0359C1278.59 90.5479 1279.28 91.1453 1279.7 91.8279L1304.28 127.924C1304.79 128.607 1305.39 128.948 1306.07 128.948C1306.75 128.948 1307.31 128.607 1307.74 127.924L1332.31 91.8279C1332.82 91.1453 1333.55 90.5479 1334.49 90.0359C1335.43 89.5239 1336.32 89.2679 1337.18 89.2679H1355.1C1355.95 89.2679 1356.67 89.5666 1357.27 90.1639C1357.87 90.7613 1358.17 91.4866 1358.17 92.3399ZM1378.34 92.3399C1378.34 91.4866 1378.64 90.7613 1379.24 90.1639C1379.84 89.5666 1380.56 89.2679 1381.41 89.2679H1400.74C1401.6 89.2679 1402.32 89.5666 1402.92 90.1639C1403.52 90.7613 1403.81 91.4866 1403.81 92.3399V144.18C1403.81 147.508 1404.33 150.281 1405.35 152.5C1406.46 154.633 1407.78 156.34 1409.32 157.62C1410.94 158.815 1412.65 159.668 1414.44 160.18C1416.23 160.692 1417.85 160.948 1419.3 160.948C1420.75 160.948 1422.37 160.692 1424.17 160.18C1425.96 159.668 1427.62 158.815 1429.16 157.62C1430.69 156.34 1431.97 154.633 1433 152.5C1434.11 150.281 1434.66 147.508 1434.66 144.18V92.3399C1434.66 91.4866 1434.96 90.7613 1435.56 90.1639C1436.16 89.5666 1436.88 89.2679 1437.73 89.2679H1457.06C1457.92 89.2679 1458.64 89.5666 1459.24 90.1639C1459.84 90.7613 1460.13 91.4866 1460.13 92.3399V144.18C1460.13 150.239 1459.15 155.743 1457.19 160.692C1455.31 165.641 1452.58 169.865 1449 173.364C1445.41 176.863 1441.1 179.593 1436.07 181.556C1431.04 183.433 1425.45 184.372 1419.3 184.372C1413.16 184.372 1407.57 183.433 1402.53 181.556C1397.5 179.593 1393.19 176.863 1389.61 173.364C1386.02 169.865 1383.25 165.641 1381.29 160.692C1379.32 155.743 1378.34 150.239 1378.34 144.18V92.3399ZM1567.28 92.2119V179.764C1567.28 180.617 1566.98 181.343 1566.38 181.94C1565.79 182.537 1565.06 182.836 1564.21 182.836H1545.26C1544.41 182.836 1543.52 182.58 1542.58 182.068C1541.64 181.556 1540.91 180.959 1540.4 180.276L1506.99 133.3C1506.48 132.617 1505.93 132.361 1505.33 132.532C1504.82 132.617 1504.56 133.087 1504.56 133.94V179.764C1504.56 180.617 1504.26 181.343 1503.66 181.94C1503.07 182.537 1502.34 182.836 1501.49 182.836H1482.42C1481.56 182.836 1480.84 182.537 1480.24 181.94C1479.64 181.343 1479.34 180.617 1479.34 179.764V92.2119C1479.34 91.3586 1479.64 90.6333 1480.24 90.0359C1480.84 89.4386 1481.56 89.1399 1482.42 89.1399H1501.62C1502.47 89.1399 1503.37 89.3959 1504.3 89.9079C1505.24 90.3346 1505.97 90.8893 1506.48 91.5719L1539.76 138.548C1540.27 139.231 1540.78 139.529 1541.3 139.444C1541.89 139.359 1542.19 138.889 1542.19 138.036V92.2119C1542.19 91.3586 1542.49 90.6333 1543.09 90.0359C1543.69 89.4386 1544.41 89.1399 1545.26 89.1399H1564.21C1565.06 89.1399 1565.79 89.4386 1566.38 90.0359C1566.98 90.6333 1567.28 91.3586 1567.28 92.2119ZM1609.89 182.836H1590.56C1589.62 182.836 1588.86 182.537 1588.26 181.94C1587.75 181.343 1587.49 180.617 1587.49 179.764V92.3399C1587.49 91.4866 1587.75 90.7613 1588.26 90.1639C1588.86 89.5666 1589.62 89.2679 1590.56 89.2679H1609.89C1610.74 89.2679 1611.47 89.5666 1612.07 90.1639C1612.66 90.7613 1612.96 91.4866 1612.96 92.3399V179.764C1612.96 180.617 1612.66 181.343 1612.07 181.94C1611.47 182.537 1610.74 182.836 1609.89 182.836ZM1692.53 112.692H1674.61C1673.76 112.692 1673.03 112.991 1672.43 113.588C1671.84 114.185 1671.54 114.911 1671.54 115.764V179.764C1671.54 180.617 1671.24 181.343 1670.64 181.94C1670.13 182.537 1669.4 182.836 1668.47 182.836H1649.27C1648.41 182.836 1647.69 182.537 1647.09 181.94C1646.49 181.343 1646.19 180.617 1646.19 179.764V115.764C1646.19 114.911 1645.9 114.185 1645.3 113.588C1644.79 112.991 1644.06 112.692 1643.12 112.692H1624.95C1624.09 112.692 1623.37 112.393 1622.77 111.796C1622.17 111.199 1621.87 110.473 1621.87 109.62V92.2119C1621.87 91.3586 1622.17 90.6333 1622.77 90.0359C1623.37 89.4386 1624.09 89.1399 1624.95 89.1399H1692.53C1693.47 89.1399 1694.19 89.4386 1694.71 90.0359C1695.3 90.6333 1695.6 91.3586 1695.6 92.2119V109.62C1695.6 110.473 1695.3 111.199 1694.71 111.796C1694.19 112.393 1693.47 112.692 1692.53 112.692ZM1788.15 92.8519L1756.15 144.692C1755.73 145.46 1755.34 146.399 1755 147.508C1754.66 148.617 1754.49 149.599 1754.49 150.452V179.764C1754.49 180.617 1754.19 181.343 1753.59 181.94C1753 182.537 1752.27 182.836 1751.42 182.836H1732.09C1731.24 182.836 1730.51 182.537 1729.91 181.94C1729.32 181.343 1729.02 180.617 1729.02 179.764V150.58C1729.02 149.727 1728.85 148.745 1728.51 147.636C1728.25 146.441 1727.91 145.503 1727.48 144.82C1722.36 136.031 1717.11 127.412 1711.74 118.964C1706.45 110.516 1701.16 101.812 1695.87 92.8519C1695.44 92.0839 1695.35 91.3159 1695.61 90.5479C1695.87 89.6946 1696.42 89.2679 1697.27 89.2679H1720.06C1720.91 89.2679 1721.77 89.5239 1722.62 90.0359C1723.56 90.5479 1724.24 91.1879 1724.67 91.9559L1740.41 119.348C1740.84 120.031 1741.35 120.372 1741.95 120.372C1742.54 120.372 1743.06 120.031 1743.48 119.348L1759.1 91.9559C1759.53 91.1879 1760.17 90.5479 1761.02 90.0359C1761.96 89.5239 1762.85 89.2679 1763.71 89.2679H1786.75C1787.6 89.2679 1788.2 89.5666 1788.54 90.1639C1788.97 90.7613 1788.84 91.6573 1788.15 92.8519ZM1860.7 170.548C1860.7 172.34 1860.36 174.047 1859.68 175.668C1859 177.289 1858.06 178.697 1856.86 179.892C1855.67 181.087 1854.26 182.025 1852.64 182.708C1851.02 183.391 1849.31 183.732 1847.52 183.732C1845.73 183.732 1844.02 183.391 1842.4 182.708C1840.86 182.025 1839.5 181.087 1838.3 179.892C1837.11 178.697 1836.17 177.289 1835.49 175.668C1834.8 174.047 1834.46 172.34 1834.46 170.548C1834.46 168.756 1834.8 167.092 1835.49 165.556C1836.17 164.02 1837.11 162.655 1838.3 161.46C1839.5 160.265 1840.86 159.327 1842.4 158.644C1844.02 157.961 1845.73 157.62 1847.52 157.62C1849.31 157.62 1851.02 157.961 1852.64 158.644C1854.26 159.327 1855.67 160.265 1856.86 161.46C1858.06 162.655 1859 164.02 1859.68 165.556C1860.36 167.092 1860.7 168.756 1860.7 170.548ZM2003.96 157.876C2001.49 161.887 1998.76 165.556 1995.77 168.884C1992.78 172.127 1989.41 174.9 1985.66 177.204C1981.99 179.508 1977.89 181.3 1973.37 182.58C1968.85 183.86 1963.86 184.5 1958.39 184.5C1951.57 184.5 1945.17 183.22 1939.19 180.66C1933.22 178.1 1927.97 174.644 1923.45 170.292C1919.01 165.94 1915.51 160.82 1912.95 154.932C1910.39 149.044 1909.11 142.772 1909.11 136.116C1909.11 129.46 1910.39 123.188 1912.95 117.3C1915.51 111.412 1919.01 106.292 1923.45 101.94C1927.97 97.5879 1933.22 94.1319 1939.19 91.5719C1945.17 89.0119 1951.57 87.7319 1958.39 87.7319C1964.03 87.7319 1969.1 88.3719 1973.63 89.6519C1978.15 90.9319 1982.25 92.7239 1985.91 95.0279C1989.58 97.3319 1992.87 100.148 1995.77 103.476C1998.76 106.719 2001.49 110.303 2003.96 114.228C2004.39 114.911 2004.47 115.636 2004.22 116.404C2003.96 117.172 2003.45 117.727 2002.68 118.068L1984.51 125.236C1983.65 125.577 1982.8 125.577 1981.95 125.236C1981.09 124.895 1980.45 124.383 1980.03 123.7C1977.55 119.775 1974.57 116.788 1971.07 114.74C1967.57 112.607 1963.34 111.54 1958.39 111.54C1955.15 111.54 1952.08 112.223 1949.18 113.588C1946.36 114.953 1943.89 116.788 1941.75 119.092C1939.62 121.311 1937.96 123.913 1936.76 126.9C1935.57 129.887 1934.97 132.959 1934.97 136.116C1934.97 139.359 1935.57 142.473 1936.76 145.46C1937.96 148.361 1939.62 150.921 1941.75 153.14C1943.89 155.359 1946.36 157.151 1949.18 158.516C1952.08 159.881 1955.15 160.564 1958.39 160.564C1963.09 160.564 1967.31 159.455 1971.07 157.236C1974.91 154.932 1977.94 151.988 1980.15 148.404C1980.58 147.721 1981.18 147.209 1981.95 146.868C1982.8 146.527 1983.65 146.527 1984.51 146.868L2002.68 154.036C2003.45 154.377 2003.96 154.932 2004.22 155.7C2004.47 156.383 2004.39 157.108 2003.96 157.876ZM2009.5 135.988C2009.5 129.332 2010.78 123.06 2013.34 117.172C2015.9 111.284 2019.35 106.164 2023.7 101.812C2028.06 97.3746 2033.18 93.8759 2039.06 91.3159C2044.95 88.7559 2051.22 87.4759 2057.88 87.4759C2064.54 87.4759 2070.81 88.7559 2076.7 91.3159C2082.58 93.8759 2087.7 97.3746 2092.06 101.812C2096.49 106.164 2099.99 111.284 2102.55 117.172C2105.11 123.06 2106.39 129.332 2106.39 135.988C2106.39 142.644 2105.11 148.916 2102.55 154.804C2099.99 160.692 2096.49 165.855 2092.06 170.292C2087.7 174.644 2082.58 178.1 2076.7 180.66C2070.81 183.22 2064.54 184.5 2057.88 184.5C2051.22 184.5 2044.95 183.22 2039.06 180.66C2033.18 178.1 2028.06 174.644 2023.7 170.292C2019.35 165.855 2015.9 160.692 2013.34 154.804C2010.78 148.916 2009.5 142.644 2009.5 135.988ZM2034.84 135.988C2034.84 139.231 2035.44 142.303 2036.63 145.204C2037.83 148.105 2039.45 150.665 2041.5 152.884C2043.63 155.103 2046.1 156.895 2048.92 158.26C2051.74 159.54 2054.72 160.18 2057.88 160.18C2061.04 160.18 2064.02 159.54 2066.84 158.26C2069.66 156.895 2072.13 155.103 2074.26 152.884C2076.4 150.665 2078.06 148.105 2079.26 145.204C2080.45 142.303 2081.05 139.231 2081.05 135.988C2081.05 132.831 2080.45 129.801 2079.26 126.9C2078.06 123.913 2076.4 121.353 2074.26 119.22C2072.13 117.001 2069.66 115.252 2066.84 113.972C2064.02 112.607 2061.04 111.924 2057.88 111.924C2054.72 111.924 2051.74 112.607 2048.92 113.972C2046.1 115.252 2043.63 117.001 2041.5 119.22C2039.45 121.353 2037.83 123.913 2036.63 126.9C2035.44 129.801 2034.84 132.831 2034.84 135.988ZM2189.48 162.356V179.764C2189.48 180.617 2189.18 181.343 2188.58 181.94C2187.99 182.537 2187.26 182.836 2186.41 182.836H2122.54C2121.6 182.836 2120.83 182.537 2120.23 181.94C2119.72 181.343 2119.46 180.617 2119.46 179.764V92.2119C2119.46 91.3586 2119.72 90.6333 2120.23 90.0359C2120.83 89.4386 2121.6 89.1399 2122.54 89.1399H2141.74C2142.59 89.1399 2143.31 89.4386 2143.91 90.0359C2144.51 90.6333 2144.81 91.3586 2144.81 92.2119V156.212C2144.81 157.065 2145.06 157.791 2145.58 158.388C2146.17 158.985 2146.94 159.284 2147.88 159.284H2186.41C2187.26 159.284 2187.99 159.583 2188.58 160.18C2189.18 160.777 2189.48 161.503 2189.48 162.356ZM2268.23 162.356V179.764C2268.23 180.617 2267.93 181.343 2267.33 181.94C2266.74 182.537 2266.01 182.836 2265.16 182.836H2201.29C2200.35 182.836 2199.58 182.537 2198.98 181.94C2198.47 181.343 2198.21 180.617 2198.21 179.764V92.2119C2198.21 91.3586 2198.47 90.6333 2198.98 90.0359C2199.58 89.4386 2200.35 89.1399 2201.29 89.1399H2220.49C2221.34 89.1399 2222.06 89.4386 2222.66 90.0359C2223.26 90.6333 2223.56 91.3586 2223.56 92.2119V156.212C2223.56 157.065 2223.81 157.791 2224.33 158.388C2224.92 158.985 2225.69 159.284 2226.63 159.284H2265.16C2266.01 159.284 2266.74 159.583 2267.33 160.18C2267.93 160.777 2268.23 161.503 2268.23 162.356ZM2307.74 92.0839C2308.08 91.3159 2308.64 90.6759 2309.4 90.1639C2310.26 89.5666 2311.15 89.2679 2312.09 89.2679H2330.01C2330.87 89.2679 2331.68 89.5666 2332.44 90.1639C2333.3 90.6759 2333.89 91.3159 2334.24 92.0839L2371.61 179.124C2371.95 179.892 2371.87 180.703 2371.36 181.556C2370.93 182.409 2370.03 182.836 2368.67 182.836H2346.78C2345.84 182.836 2344.95 182.58 2344.09 182.068C2343.32 181.471 2342.73 180.788 2342.3 180.02L2338.84 172.34C2338.42 171.572 2337.78 170.932 2336.92 170.42C2336.16 169.823 2335.35 169.524 2334.49 169.524H2307.48C2306.55 169.524 2305.65 169.823 2304.8 170.42C2304.03 170.932 2303.47 171.572 2303.13 172.34L2299.55 180.02C2299.21 180.788 2298.61 181.471 2297.76 182.068C2296.99 182.58 2296.18 182.836 2295.32 182.836H2273.31C2272.88 182.836 2272.45 182.751 2272.03 182.58C2271.52 182.409 2271.13 182.153 2270.88 181.812C2270.53 181.471 2270.32 181.044 2270.24 180.532C2270.15 180.02 2270.28 179.423 2270.62 178.74L2307.74 92.0839ZM2315.29 147.764H2326.68C2327.54 147.764 2328.13 147.508 2328.48 146.996C2328.9 146.399 2328.9 145.716 2328.48 144.948C2327.62 142.815 2326.6 140.34 2325.4 137.524C2324.21 134.623 2323.1 131.935 2322.08 129.46C2321.73 128.692 2321.35 128.308 2320.92 128.308C2320.5 128.308 2320.11 128.692 2319.77 129.46L2313.37 144.948C2313.03 145.716 2313.03 146.399 2313.37 146.996C2313.71 147.508 2314.35 147.764 2315.29 147.764ZM2444.72 134.58C2446.09 135.348 2447.45 136.287 2448.82 137.396C2450.18 138.505 2451.42 139.871 2452.53 141.492C2453.72 143.113 2454.66 144.991 2455.34 147.124C2456.11 149.257 2456.5 151.689 2456.5 154.42C2456.5 159.967 2455.6 164.575 2453.81 168.244C2452.1 171.828 2449.75 174.729 2446.77 176.948C2443.78 179.081 2440.33 180.617 2436.4 181.556C2432.56 182.409 2428.51 182.836 2424.24 182.836H2383.66C2382.81 182.836 2382.09 182.537 2381.49 181.94C2380.89 181.343 2380.59 180.617 2380.59 179.764V92.2119C2380.59 91.3586 2380.89 90.6333 2381.49 90.0359C2382.09 89.4386 2382.81 89.1399 2383.66 89.1399H2422.32C2426.42 89.1399 2430.34 89.6093 2434.1 90.5479C2437.85 91.4013 2441.14 92.8519 2443.95 94.8999C2446.85 96.9479 2449.16 99.6359 2450.86 102.964C2452.66 106.207 2453.55 110.217 2453.55 114.996C2453.55 118.836 2452.57 122.164 2450.61 124.98C2448.73 127.796 2446.68 130.015 2444.46 131.636C2442.93 132.745 2443.01 133.727 2444.72 134.58ZM2409.01 124.724H2420.91C2422.62 124.724 2423.98 124.084 2425.01 122.804C2426.03 121.439 2426.54 119.945 2426.54 118.324C2426.54 116.788 2425.9 115.465 2424.62 114.356C2423.43 113.247 2422.28 112.692 2421.17 112.692H2409.01C2408.15 112.692 2407.43 112.991 2406.83 113.588C2406.23 114.185 2405.94 114.911 2405.94 115.764V121.652C2405.94 122.505 2406.23 123.231 2406.83 123.828C2407.43 124.425 2408.15 124.724 2409.01 124.724ZM2422.45 145.844H2409.01C2408.15 145.844 2407.43 146.143 2406.83 146.74C2406.23 147.337 2405.94 148.063 2405.94 148.916V156.212C2405.94 157.065 2406.23 157.791 2406.83 158.388C2407.43 158.985 2408.15 159.284 2409.01 159.284H2423.34C2424.88 159.284 2426.33 158.644 2427.7 157.364C2429.06 156.084 2429.74 154.591 2429.74 152.884C2429.74 151.348 2429.06 149.812 2427.7 148.276C2426.42 146.655 2424.67 145.844 2422.45 145.844ZM2466.25 135.988C2466.25 129.332 2467.53 123.06 2470.09 117.172C2472.65 111.284 2476.1 106.164 2480.45 101.812C2484.81 97.3746 2489.93 93.8759 2495.81 91.3159C2501.7 88.7559 2507.97 87.4759 2514.63 87.4759C2521.29 87.4759 2527.56 88.7559 2533.45 91.3159C2539.33 93.8759 2544.45 97.3746 2548.81 101.812C2553.24 106.164 2556.74 111.284 2559.3 117.172C2561.86 123.06 2563.14 129.332 2563.14 135.988C2563.14 142.644 2561.86 148.916 2559.3 154.804C2556.74 160.692 2553.24 165.855 2548.81 170.292C2544.45 174.644 2539.33 178.1 2533.45 180.66C2527.56 183.22 2521.29 184.5 2514.63 184.5C2507.97 184.5 2501.7 183.22 2495.81 180.66C2489.93 178.1 2484.81 174.644 2480.45 170.292C2476.1 165.855 2472.65 160.692 2470.09 154.804C2467.53 148.916 2466.25 142.644 2466.25 135.988ZM2491.59 135.988C2491.59 139.231 2492.19 142.303 2493.38 145.204C2494.58 148.105 2496.2 150.665 2498.25 152.884C2500.38 155.103 2502.85 156.895 2505.67 158.26C2508.49 159.54 2511.47 160.18 2514.63 160.18C2517.79 160.18 2520.77 159.54 2523.59 158.26C2526.41 156.895 2528.88 155.103 2531.01 152.884C2533.15 150.665 2534.81 148.105 2536.01 145.204C2537.2 142.303 2537.8 139.231 2537.8 135.988C2537.8 132.831 2537.2 129.801 2536.01 126.9C2534.81 123.913 2533.15 121.353 2531.01 119.22C2528.88 117.001 2526.41 115.252 2523.59 113.972C2520.77 112.607 2517.79 111.924 2514.63 111.924C2511.47 111.924 2508.49 112.607 2505.67 113.972C2502.85 115.252 2500.38 117.001 2498.25 119.22C2496.2 121.353 2494.58 123.913 2493.38 126.9C2492.19 129.801 2491.59 132.831 2491.59 135.988ZM2598.61 182.836H2579.54C2578.69 182.836 2577.96 182.537 2577.37 181.94C2576.77 181.343 2576.47 180.617 2576.47 179.764V92.2119C2576.47 91.3586 2576.77 90.6333 2577.37 90.0359C2577.96 89.4386 2578.69 89.1399 2579.54 89.1399H2619.35C2624.3 89.1399 2628.86 89.9933 2633.05 91.6999C2637.23 93.3213 2640.77 95.6253 2643.67 98.6119C2646.66 101.599 2648.96 105.14 2650.58 109.236C2652.29 113.332 2653.14 117.855 2653.14 122.804C2653.14 125.535 2652.8 128.265 2652.12 130.996C2651.52 133.641 2650.62 136.159 2649.43 138.548C2648.24 140.937 2646.83 143.113 2645.21 145.076C2643.58 146.953 2641.75 148.532 2639.7 149.812C2639.02 150.324 2638.55 150.964 2638.29 151.732C2638.12 152.415 2638.29 153.097 2638.81 153.78C2642.05 158.047 2645.46 162.441 2649.05 166.964C2652.63 171.487 2655.83 175.625 2658.65 179.38C2659.16 180.063 2659.29 180.831 2659.03 181.684C2658.77 182.452 2658.22 182.836 2657.37 182.836H2633.56C2632.7 182.836 2631.77 182.623 2630.74 182.196C2629.8 181.684 2629.08 181.087 2628.57 180.404C2625.84 176.82 2623.1 173.193 2620.37 169.524C2617.73 165.855 2615.08 162.143 2612.44 158.388C2611.93 157.705 2611.2 157.151 2610.26 156.724C2609.32 156.212 2608.43 155.956 2607.57 155.956H2604.76C2603.9 155.956 2603.18 156.255 2602.58 156.852C2601.98 157.449 2601.69 158.175 2601.69 159.028V179.764C2601.69 180.617 2601.39 181.343 2600.79 181.94C2600.19 182.537 2599.47 182.836 2598.61 182.836ZM2604.76 132.404H2618.33C2619.35 132.404 2620.42 132.233 2621.53 131.892C2622.64 131.465 2623.66 130.868 2624.6 130.1C2625.54 129.247 2626.3 128.223 2626.9 127.028C2627.5 125.833 2627.8 124.425 2627.8 122.804C2627.8 121.951 2627.63 120.969 2627.29 119.86C2627.03 118.665 2626.52 117.556 2625.75 116.532C2625.07 115.423 2624.09 114.527 2622.81 113.844C2621.61 113.076 2620.12 112.692 2618.33 112.692H2604.76C2603.9 112.692 2603.18 112.991 2602.58 113.588C2601.98 114.185 2601.69 114.911 2601.69 115.764V129.332C2601.69 130.185 2601.98 130.911 2602.58 131.508C2603.18 132.105 2603.9 132.404 2604.76 132.404ZM2697.99 92.0839C2698.33 91.3159 2698.89 90.6759 2699.65 90.1639C2700.51 89.5666 2701.4 89.2679 2702.34 89.2679H2720.26C2721.12 89.2679 2721.93 89.5666 2722.69 90.1639C2723.55 90.6759 2724.14 91.3159 2724.49 92.0839L2761.86 179.124C2762.2 179.892 2762.12 180.703 2761.61 181.556C2761.18 182.409 2760.28 182.836 2758.92 182.836H2737.03C2736.09 182.836 2735.2 182.58 2734.34 182.068C2733.57 181.471 2732.98 180.788 2732.55 180.02L2729.09 172.34C2728.67 171.572 2728.03 170.932 2727.17 170.42C2726.41 169.823 2725.6 169.524 2724.74 169.524H2697.73C2696.8 169.524 2695.9 169.823 2695.05 170.42C2694.28 170.932 2693.72 171.572 2693.38 172.34L2689.8 180.02C2689.46 180.788 2688.86 181.471 2688.01 182.068C2687.24 182.58 2686.43 182.836 2685.57 182.836H2663.56C2663.13 182.836 2662.7 182.751 2662.28 182.58C2661.77 182.409 2661.38 182.153 2661.13 181.812C2660.78 181.471 2660.57 181.044 2660.49 180.532C2660.4 180.02 2660.53 179.423 2660.87 178.74L2697.99 92.0839ZM2705.54 147.764H2716.93C2717.79 147.764 2718.38 147.508 2718.73 146.996C2719.15 146.399 2719.15 145.716 2718.73 144.948C2717.87 142.815 2716.85 140.34 2715.65 137.524C2714.46 134.623 2713.35 131.935 2712.33 129.46C2711.98 128.692 2711.6 128.308 2711.17 128.308C2710.75 128.308 2710.36 128.692 2710.02 129.46L2703.62 144.948C2703.28 145.716 2703.28 146.399 2703.62 146.996C2703.96 147.508 2704.6 147.764 2705.54 147.764ZM2822.53 112.692H2804.61C2803.76 112.692 2803.03 112.991 2802.43 113.588C2801.84 114.185 2801.54 114.911 2801.54 115.764V179.764C2801.54 180.617 2801.24 181.343 2800.64 181.94C2800.13 182.537 2799.4 182.836 2798.47 182.836H2779.27C2778.41 182.836 2777.69 182.537 2777.09 181.94C2776.49 181.343 2776.19 180.617 2776.19 179.764V115.764C2776.19 114.911 2775.9 114.185 2775.3 113.588C2774.79 112.991 2774.06 112.692 2773.12 112.692H2754.95C2754.09 112.692 2753.37 112.393 2752.77 111.796C2752.17 111.199 2751.87 110.473 2751.87 109.62V92.2119C2751.87 91.3586 2752.17 90.6333 2752.77 90.0359C2753.37 89.4386 2754.09 89.1399 2754.95 89.1399H2822.53C2823.47 89.1399 2824.19 89.4386 2824.71 90.0359C2825.3 90.6333 2825.6 91.3586 2825.6 92.2119V109.62C2825.6 110.473 2825.3 111.199 2824.71 111.796C2824.19 112.393 2823.47 112.692 2822.53 112.692ZM2860.68 115.764V121.14C2860.68 121.993 2860.98 122.719 2861.58 123.316C2862.18 123.913 2862.9 124.212 2863.75 124.212H2898.44C2899.3 124.212 2900.02 124.511 2900.62 125.108C2901.22 125.705 2901.51 126.431 2901.51 127.284V144.948C2901.51 145.801 2901.22 146.527 2900.62 147.124C2900.02 147.721 2899.3 148.02 2898.44 148.02H2863.75C2862.9 148.02 2862.18 148.319 2861.58 148.916C2860.98 149.513 2860.68 150.239 2860.68 151.092V155.956C2860.68 156.809 2860.98 157.535 2861.58 158.132C2862.18 158.729 2862.9 159.028 2863.75 159.028H2903.56C2904.42 159.028 2905.14 159.327 2905.74 159.924C2906.34 160.521 2906.63 161.247 2906.63 162.1V179.764C2906.63 180.617 2906.34 181.343 2905.74 181.94C2905.14 182.537 2904.42 182.836 2903.56 182.836H2838.41C2837.56 182.836 2836.83 182.537 2836.23 181.94C2835.64 181.343 2835.34 180.617 2835.34 179.764V92.2119C2835.34 91.3586 2835.64 90.6333 2836.23 90.0359C2836.83 89.4386 2837.56 89.1399 2838.41 89.1399H2903.56C2904.42 89.1399 2905.14 89.4386 2905.74 90.0359C2906.34 90.6333 2906.63 91.3586 2906.63 92.2119V109.62C2906.63 110.473 2906.34 111.199 2905.74 111.796C2905.14 112.393 2904.42 112.692 2903.56 112.692H2863.75C2862.9 112.692 2862.18 112.991 2861.58 113.588C2860.98 114.185 2860.68 114.911 2860.68 115.764Z" fill="#231F20"/>
<path d="M3059.72 114.167L3110.89 108.417L3080.55 150.333L3111.22 191.75L3059.72 186.333L3039.14 233.667L3018.05 186.5L2966.89 192.25L2997.22 150.333L2966.55 108.917L3018.05 114.333L3038.64 67L3059.72 114.167Z" fill="#231F20"/>
<path d="M3254.39 114.167L3305.56 108.417L3275.22 150.333L3305.89 191.75L3254.39 186.333L3233.81 233.667L3212.72 186.5L3161.56 192.25L3191.89 150.333L3161.22 108.917L3212.72 114.333L3233.31 67L3254.39 114.167Z" fill="#231F20"/>
<path d="M3449.05 114.167L3500.22 108.417L3469.89 150.333L3500.55 191.75L3449.05 186.333L3428.47 233.667L3407.39 186.5L3356.22 192.25L3386.55 150.333L3355.89 108.917L3407.39 114.333L3427.97 67L3449.05 114.167Z" fill="#231F20"/>
<path d="M3643.72 114.167L3694.89 108.417L3664.55 150.333L3695.22 191.75L3643.72 186.333L3623.14 233.667L3602.05 186.5L3550.89 192.25L3581.22 150.333L3550.55 108.917L3602.05 114.333L3622.64 67L3643.72 114.167Z" fill="#231F20"/>
<path d="M3968.06 79.625L4038.77 150.336L3968.06 221.046L3946.85 199.833L3996.35 150.336L3946.85 100.838L3968.06 79.625Z" fill="#231F20"/>
<path d="M3906.64 79.625L3977.35 150.336L3906.64 221.046L3885.43 199.833L3934.92 150.336L3885.43 100.838L3906.64 79.625Z" fill="#231F20"/>
<path d="M3845.22 79.625L3915.93 150.336L3845.22 221.046L3824.01 199.833L3873.5 150.336L3824.01 100.838L3845.22 79.625Z" fill="#231F20"/>
<path d="M3809.93 79.625L3880.64 150.336L3809.93 221.046L3788.72 199.833L3838.21 150.336L3788.72 100.838L3809.93 79.625Z" fill="#231F20"/>
<path d="M3745.22 79.625H3845.22V220.625H3745.22V79.625Z" fill="#231F20"/>
<path d="M4162.37 112.692H4144.45C4143.6 112.692 4142.87 112.991 4142.28 113.588C4141.68 114.185 4141.38 114.911 4141.38 115.764V179.764C4141.38 180.617 4141.08 181.343 4140.49 181.94C4139.97 182.537 4139.25 182.836 4138.31 182.836H4119.11C4118.26 182.836 4117.53 182.537 4116.93 181.94C4116.34 181.343 4116.04 180.617 4116.04 179.764V115.764C4116.04 114.911 4115.74 114.185 4115.14 113.588C4114.63 112.991 4113.9 112.692 4112.97 112.692H4094.79C4093.94 112.692 4093.21 112.393 4092.61 111.796C4092.02 111.199 4091.72 110.473 4091.72 109.62V92.2119C4091.72 91.3586 4092.02 90.6333 4092.61 90.0359C4093.21 89.4386 4093.94 89.1399 4094.79 89.1399H4162.37C4163.31 89.1399 4164.04 89.4386 4164.55 90.0359C4165.15 90.6333 4165.45 91.3586 4165.45 92.2119V109.62C4165.45 110.473 4165.15 111.199 4164.55 111.796C4164.04 112.393 4163.31 112.692 4162.37 112.692ZM4200.53 115.764V121.14C4200.53 121.993 4200.83 122.719 4201.42 123.316C4202.02 123.913 4202.75 124.212 4203.6 124.212H4238.29C4239.14 124.212 4239.87 124.511 4240.46 125.108C4241.06 125.705 4241.36 126.431 4241.36 127.284V144.948C4241.36 145.801 4241.06 146.527 4240.46 147.124C4239.87 147.721 4239.14 148.02 4238.29 148.02H4203.6C4202.75 148.02 4202.02 148.319 4201.42 148.916C4200.83 149.513 4200.53 150.239 4200.53 151.092V155.956C4200.53 156.809 4200.83 157.535 4201.42 158.132C4202.02 158.729 4202.75 159.028 4203.6 159.028H4243.41C4244.26 159.028 4244.99 159.327 4245.58 159.924C4246.18 160.521 4246.48 161.247 4246.48 162.1V179.764C4246.48 180.617 4246.18 181.343 4245.58 181.94C4244.99 182.537 4244.26 182.836 4243.41 182.836H4178.25C4177.4 182.836 4176.68 182.537 4176.08 181.94C4175.48 181.343 4175.18 180.617 4175.18 179.764V92.2119C4175.18 91.3586 4175.48 90.6333 4176.08 90.0359C4176.68 89.4386 4177.4 89.1399 4178.25 89.1399H4243.41C4244.26 89.1399 4244.99 89.4386 4245.58 90.0359C4246.18 90.6333 4246.48 91.3586 4246.48 92.2119V109.62C4246.48 110.473 4246.18 111.199 4245.58 111.796C4244.99 112.393 4244.26 112.692 4243.41 112.692H4203.6C4202.75 112.692 4202.02 112.991 4201.42 113.588C4200.83 114.185 4200.53 114.911 4200.53 115.764ZM4350.68 157.876C4348.21 161.887 4345.48 165.556 4342.49 168.884C4339.5 172.127 4336.13 174.9 4332.38 177.204C4328.71 179.508 4324.61 181.3 4320.09 182.58C4315.57 183.86 4310.57 184.5 4305.11 184.5C4298.29 184.5 4291.89 183.22 4285.91 180.66C4279.94 178.1 4274.69 174.644 4270.17 170.292C4265.73 165.94 4262.23 160.82 4259.67 154.932C4257.11 149.044 4255.83 142.772 4255.83 136.116C4255.83 129.46 4257.11 123.188 4259.67 117.3C4262.23 111.412 4265.73 106.292 4270.17 101.94C4274.69 97.5879 4279.94 94.1319 4285.91 91.5719C4291.89 89.0119 4298.29 87.7319 4305.11 87.7319C4310.75 87.7319 4315.82 88.3719 4320.35 89.6519C4324.87 90.9319 4328.96 92.7239 4332.63 95.0279C4336.3 97.3319 4339.59 100.148 4342.49 103.476C4345.48 106.719 4348.21 110.303 4350.68 114.228C4351.11 114.911 4351.19 115.636 4350.94 116.404C4350.68 117.172 4350.17 117.727 4349.4 118.068L4331.23 125.236C4330.37 125.577 4329.52 125.577 4328.67 125.236C4327.81 124.895 4327.17 124.383 4326.75 123.7C4324.27 119.775 4321.28 116.788 4317.79 114.74C4314.29 112.607 4310.06 111.54 4305.11 111.54C4301.87 111.54 4298.8 112.223 4295.9 113.588C4293.08 114.953 4290.61 116.788 4288.47 119.092C4286.34 121.311 4284.68 123.913 4283.48 126.9C4282.29 129.887 4281.69 132.959 4281.69 136.116C4281.69 139.359 4282.29 142.473 4283.48 145.46C4284.68 148.361 4286.34 150.921 4288.47 153.14C4290.61 155.359 4293.08 157.151 4295.9 158.516C4298.8 159.881 4301.87 160.564 4305.11 160.564C4309.81 160.564 4314.03 159.455 4317.79 157.236C4321.63 154.932 4324.65 151.988 4326.87 148.404C4327.3 147.721 4327.9 147.209 4328.67 146.868C4329.52 146.527 4330.37 146.527 4331.23 146.868L4349.4 154.036C4350.17 154.377 4350.68 154.932 4350.94 155.7C4351.19 156.383 4351.11 157.108 4350.68 157.876ZM4443.77 92.2119V179.764C4443.77 180.617 4443.47 181.343 4442.87 181.94C4442.27 182.537 4441.55 182.836 4440.69 182.836H4421.49C4420.56 182.836 4419.79 182.537 4419.19 181.94C4418.68 181.343 4418.42 180.617 4418.42 179.764V152.372C4418.42 151.519 4418.12 150.793 4417.53 150.196C4416.93 149.599 4416.2 149.3 4415.35 149.3H4388.98C4388.04 149.3 4387.28 149.599 4386.68 150.196C4386.17 150.793 4385.91 151.519 4385.91 152.372V179.764C4385.91 180.617 4385.61 181.343 4385.01 181.94C4384.42 182.537 4383.69 182.836 4382.84 182.836H4363.77C4362.83 182.836 4362.06 182.537 4361.46 181.94C4360.95 181.343 4360.69 180.617 4360.69 179.764V92.2119C4360.69 91.3586 4360.95 90.6333 4361.46 90.0359C4362.06 89.4386 4362.83 89.1399 4363.77 89.1399H4382.84C4383.69 89.1399 4384.42 89.4386 4385.01 90.0359C4385.61 90.6333 4385.91 91.3586 4385.91 92.2119V122.548C4385.91 123.401 4386.17 124.127 4386.68 124.724C4387.28 125.321 4388.04 125.62 4388.98 125.62H4415.35C4416.2 125.62 4416.93 125.321 4417.53 124.724C4418.12 124.127 4418.42 123.401 4418.42 122.548V92.2119C4418.42 91.3586 4418.68 90.6333 4419.19 90.0359C4419.79 89.4386 4420.56 89.1399 4421.49 89.1399H4440.69C4441.55 89.1399 4442.27 89.4386 4442.87 90.0359C4443.47 90.6333 4443.77 91.3586 4443.77 92.2119ZM4527.17 170.548C4527.17 172.34 4526.83 174.047 4526.15 175.668C4525.46 177.289 4524.53 178.697 4523.33 179.892C4522.14 181.087 4520.73 182.025 4519.11 182.708C4517.49 183.391 4515.78 183.732 4513.99 183.732C4512.2 183.732 4510.49 183.391 4508.87 182.708C4507.33 182.025 4505.97 181.087 4504.77 179.892C4503.58 178.697 4502.64 177.289 4501.96 175.668C4501.27 174.047 4500.93 172.34 4500.93 170.548C4500.93 168.756 4501.27 167.092 4501.96 165.556C4502.64 164.02 4503.58 162.655 4504.77 161.46C4505.97 160.265 4507.33 159.327 4508.87 158.644C4510.49 157.961 4512.2 157.62 4513.99 157.62C4515.78 157.62 4517.49 157.961 4519.11 158.644C4520.73 159.327 4522.14 160.265 4523.33 161.46C4524.53 162.655 4525.46 164.02 4526.15 165.556C4526.83 167.092 4527.17 168.756 4527.17 170.548ZM4670.43 157.876C4667.96 161.887 4665.23 165.556 4662.24 168.884C4659.25 172.127 4655.88 174.9 4652.13 177.204C4648.46 179.508 4644.36 181.3 4639.84 182.58C4635.32 183.86 4630.32 184.5 4624.86 184.5C4618.04 184.5 4611.64 183.22 4605.66 180.66C4599.69 178.1 4594.44 174.644 4589.92 170.292C4585.48 165.94 4581.98 160.82 4579.42 154.932C4576.86 149.044 4575.58 142.772 4575.58 136.116C4575.58 129.46 4576.86 123.188 4579.42 117.3C4581.98 111.412 4585.48 106.292 4589.92 101.94C4594.44 97.5879 4599.69 94.1319 4605.66 91.5719C4611.64 89.0119 4618.04 87.7319 4624.86 87.7319C4630.5 87.7319 4635.57 88.3719 4640.1 89.6519C4644.62 90.9319 4648.71 92.7239 4652.38 95.0279C4656.05 97.3319 4659.34 100.148 4662.24 103.476C4665.23 106.719 4667.96 110.303 4670.43 114.228C4670.86 114.911 4670.94 115.636 4670.69 116.404C4670.43 117.172 4669.92 117.727 4669.15 118.068L4650.98 125.236C4650.12 125.577 4649.27 125.577 4648.42 125.236C4647.56 124.895 4646.92 124.383 4646.5 123.7C4644.02 119.775 4641.03 116.788 4637.54 114.74C4634.04 112.607 4629.81 111.54 4624.86 111.54C4621.62 111.54 4618.55 112.223 4615.65 113.588C4612.83 114.953 4610.36 116.788 4608.22 119.092C4606.09 121.311 4604.43 123.913 4603.23 126.9C4602.04 129.887 4601.44 132.959 4601.44 136.116C4601.44 139.359 4602.04 142.473 4603.23 145.46C4604.43 148.361 4606.09 150.921 4608.22 153.14C4610.36 155.359 4612.83 157.151 4615.65 158.516C4618.55 159.881 4621.62 160.564 4624.86 160.564C4629.56 160.564 4633.78 159.455 4637.54 157.236C4641.38 154.932 4644.4 151.988 4646.62 148.404C4647.05 147.721 4647.65 147.209 4648.42 146.868C4649.27 146.527 4650.12 146.527 4650.98 146.868L4669.15 154.036C4669.92 154.377 4670.43 154.932 4670.69 155.7C4670.94 156.383 4670.86 157.108 4670.43 157.876ZM4675.96 135.988C4675.96 129.332 4677.24 123.06 4679.8 117.172C4682.36 111.284 4685.82 106.164 4690.17 101.812C4694.52 97.3746 4699.64 93.8759 4705.53 91.3159C4711.42 88.7559 4717.69 87.4759 4724.35 87.4759C4731 87.4759 4737.28 88.7559 4743.16 91.3159C4749.05 93.8759 4754.17 97.3746 4758.52 101.812C4762.96 106.164 4766.46 111.284 4769.02 117.172C4771.58 123.06 4772.86 129.332 4772.86 135.988C4772.86 142.644 4771.58 148.916 4769.02 154.804C4766.46 160.692 4762.96 165.855 4758.52 170.292C4754.17 174.644 4749.05 178.1 4743.16 180.66C4737.28 183.22 4731 184.5 4724.35 184.5C4717.69 184.5 4711.42 183.22 4705.53 180.66C4699.64 178.1 4694.52 174.644 4690.17 170.292C4685.82 165.855 4682.36 160.692 4679.8 154.804C4677.24 148.916 4675.96 142.644 4675.96 135.988ZM4701.31 135.988C4701.31 139.231 4701.91 142.303 4703.1 145.204C4704.3 148.105 4705.92 150.665 4707.96 152.884C4710.1 155.103 4712.57 156.895 4715.39 158.26C4718.2 159.54 4721.19 160.18 4724.35 160.18C4727.51 160.18 4730.49 159.54 4733.31 158.26C4736.12 156.895 4738.6 155.103 4740.73 152.884C4742.87 150.665 4744.53 148.105 4745.72 145.204C4746.92 142.303 4747.52 139.231 4747.52 135.988C4747.52 132.831 4746.92 129.801 4745.72 126.9C4744.53 123.913 4742.87 121.353 4740.73 119.22C4738.6 117.001 4736.12 115.252 4733.31 113.972C4730.49 112.607 4727.51 111.924 4724.35 111.924C4721.19 111.924 4718.2 112.607 4715.39 113.972C4712.57 115.252 4710.1 117.001 4707.96 119.22C4705.92 121.353 4704.3 123.913 4703.1 126.9C4701.91 129.801 4701.31 132.831 4701.31 135.988ZM4890.64 92.3399V179.764C4890.64 180.617 4890.34 181.343 4889.74 181.94C4889.14 182.537 4888.42 182.836 4887.56 182.836H4868.24C4867.38 182.836 4866.66 182.537 4866.06 181.94C4865.46 181.343 4865.16 180.617 4865.16 179.764V138.548C4865.16 137.695 4864.78 137.225 4864.01 137.14C4863.24 137.055 4862.6 137.353 4862.09 138.036L4840.59 172.724C4840.16 173.407 4839.48 173.748 4838.54 173.748C4837.6 173.748 4836.88 173.407 4836.36 172.724L4814.86 138.036C4814.43 137.353 4813.84 137.055 4813.07 137.14C4812.3 137.225 4811.92 137.695 4811.92 138.548V179.764C4811.92 180.617 4811.62 181.343 4811.02 181.94C4810.42 182.537 4809.7 182.836 4808.84 182.836H4789.52C4788.66 182.836 4787.94 182.537 4787.34 181.94C4786.74 181.343 4786.44 180.617 4786.44 179.764V92.3399C4786.44 91.4866 4786.74 90.7613 4787.34 90.1639C4787.94 89.5666 4788.66 89.2679 4789.52 89.2679H4807.44C4808.29 89.2679 4809.19 89.5239 4810.12 90.0359C4811.06 90.5479 4811.75 91.1453 4812.17 91.8279L4836.75 127.924C4837.26 128.607 4837.86 128.948 4838.54 128.948C4839.22 128.948 4839.78 128.607 4840.2 127.924L4864.78 91.8279C4865.29 91.1453 4866.02 90.5479 4866.96 90.0359C4867.9 89.5239 4868.79 89.2679 4869.64 89.2679H4887.56C4888.42 89.2679 4889.14 89.5666 4889.74 90.1639C4890.34 90.7613 4890.64 91.4866 4890.64 92.3399ZM5015.39 92.3399V179.764C5015.39 180.617 5015.09 181.343 5014.49 181.94C5013.89 182.537 5013.17 182.836 5012.31 182.836H4992.99C4992.13 182.836 4991.41 182.537 4990.81 181.94C4990.21 181.343 4989.91 180.617 4989.91 179.764V138.548C4989.91 137.695 4989.53 137.225 4988.76 137.14C4987.99 137.055 4987.35 137.353 4986.84 138.036L4965.34 172.724C4964.91 173.407 4964.23 173.748 4963.29 173.748C4962.35 173.748 4961.63 173.407 4961.11 172.724L4939.61 138.036C4939.18 137.353 4938.59 137.055 4937.82 137.14C4937.05 137.225 4936.67 137.695 4936.67 138.548V179.764C4936.67 180.617 4936.37 181.343 4935.77 181.94C4935.17 182.537 4934.45 182.836 4933.59 182.836H4914.27C4913.41 182.836 4912.69 182.537 4912.09 181.94C4911.49 181.343 4911.19 180.617 4911.19 179.764V92.3399C4911.19 91.4866 4911.49 90.7613 4912.09 90.1639C4912.69 89.5666 4913.41 89.2679 4914.27 89.2679H4932.19C4933.04 89.2679 4933.94 89.5239 4934.87 90.0359C4935.81 90.5479 4936.5 91.1453 4936.92 91.8279L4961.5 127.924C4962.01 128.607 4962.61 128.948 4963.29 128.948C4963.97 128.948 4964.53 128.607 4964.95 127.924L4989.53 91.8279C4990.04 91.1453 4990.77 90.5479 4991.71 90.0359C4992.65 89.5239 4993.54 89.2679 4994.39 89.2679H5012.31C5013.17 89.2679 5013.89 89.5666 5014.49 90.1639C5015.09 90.7613 5015.39 91.4866 5015.39 92.3399ZM5035.56 92.3399C5035.56 91.4866 5035.86 90.7613 5036.46 90.1639C5037.05 89.5666 5037.78 89.2679 5038.63 89.2679H5057.96C5058.81 89.2679 5059.54 89.5666 5060.14 90.1639C5060.73 90.7613 5061.03 91.4866 5061.03 92.3399V144.18C5061.03 147.508 5061.54 150.281 5062.57 152.5C5063.68 154.633 5065 156.34 5066.54 157.62C5068.16 158.815 5069.86 159.668 5071.66 160.18C5073.45 160.692 5075.07 160.948 5076.52 160.948C5077.97 160.948 5079.59 160.692 5081.38 160.18C5083.18 159.668 5084.84 158.815 5086.38 157.62C5087.91 156.34 5089.19 154.633 5090.22 152.5C5091.33 150.281 5091.88 147.508 5091.88 144.18V92.3399C5091.88 91.4866 5092.18 90.7613 5092.78 90.1639C5093.37 89.5666 5094.1 89.2679 5094.95 89.2679H5114.28C5115.13 89.2679 5115.86 89.5666 5116.46 90.1639C5117.05 90.7613 5117.35 91.4866 5117.35 92.3399V144.18C5117.35 150.239 5116.37 155.743 5114.41 160.692C5112.53 165.641 5109.8 169.865 5106.22 173.364C5102.63 176.863 5098.32 179.593 5093.29 181.556C5088.25 183.433 5082.66 184.372 5076.52 184.372C5070.38 184.372 5064.79 183.433 5059.75 181.556C5054.72 179.593 5050.41 176.863 5046.82 173.364C5043.24 169.865 5040.47 165.641 5038.5 160.692C5036.54 155.743 5035.56 150.239 5035.56 144.18V92.3399ZM5224.5 92.2119V179.764C5224.5 180.617 5224.2 181.343 5223.6 181.94C5223.01 182.537 5222.28 182.836 5221.43 182.836H5202.48C5201.63 182.836 5200.73 182.58 5199.8 182.068C5198.86 181.556 5198.13 180.959 5197.62 180.276L5164.21 133.3C5163.7 132.617 5163.14 132.361 5162.55 132.532C5162.04 132.617 5161.78 133.087 5161.78 133.94V179.764C5161.78 180.617 5161.48 181.343 5160.88 181.94C5160.29 182.537 5159.56 182.836 5158.71 182.836H5139.64C5138.78 182.836 5138.06 182.537 5137.46 181.94C5136.86 181.343 5136.56 180.617 5136.56 179.764V92.2119C5136.56 91.3586 5136.86 90.6333 5137.46 90.0359C5138.06 89.4386 5138.78 89.1399 5139.64 89.1399H5158.84C5159.69 89.1399 5160.58 89.3959 5161.52 89.9079C5162.46 90.3346 5163.19 90.8893 5163.7 91.5719L5196.98 138.548C5197.49 139.231 5198 139.529 5198.52 139.444C5199.11 139.359 5199.41 138.889 5199.41 138.036V92.2119C5199.41 91.3586 5199.71 90.6333 5200.31 90.0359C5200.9 89.4386 5201.63 89.1399 5202.48 89.1399H5221.43C5222.28 89.1399 5223.01 89.4386 5223.6 90.0359C5224.2 90.6333 5224.5 91.3586 5224.5 92.2119ZM5267.11 182.836H5247.78C5246.84 182.836 5246.07 182.537 5245.48 181.94C5244.97 181.343 5244.71 180.617 5244.71 179.764V92.3399C5244.71 91.4866 5244.97 90.7613 5245.48 90.1639C5246.07 89.5666 5246.84 89.2679 5247.78 89.2679H5267.11C5267.96 89.2679 5268.69 89.5666 5269.29 90.1639C5269.88 90.7613 5270.18 91.4866 5270.18 92.3399V179.764C5270.18 180.617 5269.88 181.343 5269.29 181.94C5268.69 182.537 5267.96 182.836 5267.11 182.836ZM5349.75 112.692H5331.83C5330.98 112.692 5330.25 112.991 5329.65 113.588C5329.06 114.185 5328.76 114.911 5328.76 115.764V179.764C5328.76 180.617 5328.46 181.343 5327.86 181.94C5327.35 182.537 5326.62 182.836 5325.68 182.836H5306.48C5305.63 182.836 5304.91 182.537 5304.31 181.94C5303.71 181.343 5303.41 180.617 5303.41 179.764V115.764C5303.41 114.911 5303.11 114.185 5302.52 113.588C5302 112.991 5301.28 112.692 5300.34 112.692H5282.16C5281.31 112.692 5280.59 112.393 5279.99 111.796C5279.39 111.199 5279.09 110.473 5279.09 109.62V92.2119C5279.09 91.3586 5279.39 90.6333 5279.99 90.0359C5280.59 89.4386 5281.31 89.1399 5282.16 89.1399H5349.75C5350.69 89.1399 5351.41 89.4386 5351.92 90.0359C5352.52 90.6333 5352.82 91.3586 5352.82 92.2119V109.62C5352.82 110.473 5352.52 111.199 5351.92 111.796C5351.41 112.393 5350.69 112.692 5349.75 112.692ZM5445.37 92.8519L5413.37 144.692C5412.95 145.46 5412.56 146.399 5412.22 147.508C5411.88 148.617 5411.71 149.599 5411.71 150.452V179.764C5411.71 180.617 5411.41 181.343 5410.81 181.94C5410.22 182.537 5409.49 182.836 5408.64 182.836H5389.31C5388.46 182.836 5387.73 182.537 5387.13 181.94C5386.54 181.343 5386.24 180.617 5386.24 179.764V150.58C5386.24 149.727 5386.07 148.745 5385.73 147.636C5385.47 146.441 5385.13 145.503 5384.7 144.82C5379.58 136.031 5374.33 127.412 5368.96 118.964C5363.67 110.516 5358.38 101.812 5353.09 92.8519C5352.66 92.0839 5352.57 91.3159 5352.83 90.5479C5353.09 89.6946 5353.64 89.2679 5354.49 89.2679H5377.28C5378.13 89.2679 5378.98 89.5239 5379.84 90.0359C5380.78 90.5479 5381.46 91.1879 5381.89 91.9559L5397.63 119.348C5398.06 120.031 5398.57 120.372 5399.17 120.372C5399.76 120.372 5400.27 120.031 5400.7 119.348L5416.32 91.9559C5416.74 91.1879 5417.38 90.5479 5418.24 90.0359C5419.18 89.5239 5420.07 89.2679 5420.93 89.2679H5443.97C5444.82 89.2679 5445.42 89.5666 5445.76 90.1639C5446.18 90.7613 5446.06 91.6573 5445.37 92.8519ZM5517.92 170.548C5517.92 172.34 5517.58 174.047 5516.9 175.668C5516.21 177.289 5515.28 178.697 5514.08 179.892C5512.89 181.087 5511.48 182.025 5509.86 182.708C5508.24 183.391 5506.53 183.732 5504.74 183.732C5502.95 183.732 5501.24 183.391 5499.62 182.708C5498.08 182.025 5496.72 181.087 5495.52 179.892C5494.33 178.697 5493.39 177.289 5492.71 175.668C5492.02 174.047 5491.68 172.34 5491.68 170.548C5491.68 168.756 5492.02 167.092 5492.71 165.556C5493.39 164.02 5494.33 162.655 5495.52 161.46C5496.72 160.265 5498.08 159.327 5499.62 158.644C5501.24 157.961 5502.95 157.62 5504.74 157.62C5506.53 157.62 5508.24 157.961 5509.86 158.644C5511.48 159.327 5512.89 160.265 5514.08 161.46C5515.28 162.655 5516.21 164.02 5516.9 165.556C5517.58 167.092 5517.92 168.756 5517.92 170.548ZM5661.18 157.876C5658.71 161.887 5655.98 165.556 5652.99 168.884C5650 172.127 5646.63 174.9 5642.88 177.204C5639.21 179.508 5635.11 181.3 5630.59 182.58C5626.07 183.86 5621.07 184.5 5615.61 184.5C5608.79 184.5 5602.39 183.22 5596.41 180.66C5590.44 178.1 5585.19 174.644 5580.67 170.292C5576.23 165.94 5572.73 160.82 5570.17 154.932C5567.61 149.044 5566.33 142.772 5566.33 136.116C5566.33 129.46 5567.61 123.188 5570.17 117.3C5572.73 111.412 5576.23 106.292 5580.67 101.94C5585.19 97.5879 5590.44 94.1319 5596.41 91.5719C5602.39 89.0119 5608.79 87.7319 5615.61 87.7319C5621.25 87.7319 5626.32 88.3719 5630.85 89.6519C5635.37 90.9319 5639.46 92.7239 5643.13 95.0279C5646.8 97.3319 5650.09 100.148 5652.99 103.476C5655.98 106.719 5658.71 110.303 5661.18 114.228C5661.61 114.911 5661.69 115.636 5661.44 116.404C5661.18 117.172 5660.67 117.727 5659.9 118.068L5641.73 125.236C5640.87 125.577 5640.02 125.577 5639.17 125.236C5638.31 124.895 5637.67 124.383 5637.25 123.7C5634.77 119.775 5631.78 116.788 5628.29 114.74C5624.79 112.607 5620.56 111.54 5615.61 111.54C5612.37 111.54 5609.3 112.223 5606.4 113.588C5603.58 114.953 5601.11 116.788 5598.97 119.092C5596.84 121.311 5595.18 123.913 5593.98 126.9C5592.79 129.887 5592.19 132.959 5592.19 136.116C5592.19 139.359 5592.79 142.473 5593.98 145.46C5595.18 148.361 5596.84 150.921 5598.97 153.14C5601.11 155.359 5603.58 157.151 5606.4 158.516C5609.3 159.881 5612.37 160.564 5615.61 160.564C5620.31 160.564 5624.53 159.455 5628.29 157.236C5632.13 154.932 5635.15 151.988 5637.37 148.404C5637.8 147.721 5638.4 147.209 5639.17 146.868C5640.02 146.527 5640.87 146.527 5641.73 146.868L5659.9 154.036C5660.67 154.377 5661.18 154.932 5661.44 155.7C5661.69 156.383 5661.61 157.108 5661.18 157.876ZM5666.71 135.988C5666.71 129.332 5667.99 123.06 5670.55 117.172C5673.11 111.284 5676.57 106.164 5680.92 101.812C5685.27 97.3746 5690.39 93.8759 5696.28 91.3159C5702.17 88.7559 5708.44 87.4759 5715.1 87.4759C5721.75 87.4759 5728.03 88.7559 5733.91 91.3159C5739.8 93.8759 5744.92 97.3746 5749.27 101.812C5753.71 106.164 5757.21 111.284 5759.77 117.172C5762.33 123.06 5763.61 129.332 5763.61 135.988C5763.61 142.644 5762.33 148.916 5759.77 154.804C5757.21 160.692 5753.71 165.855 5749.27 170.292C5744.92 174.644 5739.8 178.1 5733.91 180.66C5728.03 183.22 5721.75 184.5 5715.1 184.5C5708.44 184.5 5702.17 183.22 5696.28 180.66C5690.39 178.1 5685.27 174.644 5680.92 170.292C5676.57 165.855 5673.11 160.692 5670.55 154.804C5667.99 148.916 5666.71 142.644 5666.71 135.988ZM5692.06 135.988C5692.06 139.231 5692.66 142.303 5693.85 145.204C5695.05 148.105 5696.67 150.665 5698.71 152.884C5700.85 155.103 5703.32 156.895 5706.14 158.26C5708.95 159.54 5711.94 160.18 5715.1 160.18C5718.26 160.18 5721.24 159.54 5724.06 158.26C5726.87 156.895 5729.35 155.103 5731.48 152.884C5733.62 150.665 5735.28 148.105 5736.47 145.204C5737.67 142.303 5738.27 139.231 5738.27 135.988C5738.27 132.831 5737.67 129.801 5736.47 126.9C5735.28 123.913 5733.62 121.353 5731.48 119.22C5729.35 117.001 5726.87 115.252 5724.06 113.972C5721.24 112.607 5718.26 111.924 5715.1 111.924C5711.94 111.924 5708.95 112.607 5706.14 113.972C5703.32 115.252 5700.85 117.001 5698.71 119.22C5696.67 121.353 5695.05 123.913 5693.85 126.9C5692.66 129.801 5692.06 132.831 5692.06 135.988ZM5846.7 162.356V179.764C5846.7 180.617 5846.4 181.343 5845.8 181.94C5845.21 182.537 5844.48 182.836 5843.63 182.836H5779.75C5778.82 182.836 5778.05 182.537 5777.45 181.94C5776.94 181.343 5776.68 180.617 5776.68 179.764V92.2119C5776.68 91.3586 5776.94 90.6333 5777.45 90.0359C5778.05 89.4386 5778.82 89.1399 5779.75 89.1399H5798.95C5799.81 89.1399 5800.53 89.4386 5801.13 90.0359C5801.73 90.6333 5802.03 91.3586 5802.03 92.2119V156.212C5802.03 157.065 5802.28 157.791 5802.79 158.388C5803.39 158.985 5804.16 159.284 5805.1 159.284H5843.63C5844.48 159.284 5845.21 159.583 5845.8 160.18C5846.4 160.777 5846.7 161.503 5846.7 162.356ZM5925.45 162.356V179.764C5925.45 180.617 5925.15 181.343 5924.55 181.94C5923.96 182.537 5923.23 182.836 5922.38 182.836H5858.5C5857.57 182.836 5856.8 182.537 5856.2 181.94C5855.69 181.343 5855.43 180.617 5855.43 179.764V92.2119C5855.43 91.3586 5855.69 90.6333 5856.2 90.0359C5856.8 89.4386 5857.57 89.1399 5858.5 89.1399H5877.7C5878.56 89.1399 5879.28 89.4386 5879.88 90.0359C5880.48 90.6333 5880.78 91.3586 5880.78 92.2119V156.212C5880.78 157.065 5881.03 157.791 5881.54 158.388C5882.14 158.985 5882.91 159.284 5883.85 159.284H5922.38C5923.23 159.284 5923.96 159.583 5924.55 160.18C5925.15 160.777 5925.45 161.503 5925.45 162.356ZM5964.96 92.0839C5965.3 91.3159 5965.85 90.6759 5966.62 90.1639C5967.48 89.5666 5968.37 89.2679 5969.31 89.2679H5987.23C5988.08 89.2679 5988.89 89.5666 5989.66 90.1639C5990.52 90.6759 5991.11 91.3159 5991.45 92.0839L6028.83 179.124C6029.17 179.892 6029.09 180.703 6028.57 181.556C6028.15 182.409 6027.25 182.836 6025.89 182.836H6004C6003.06 182.836 6002.16 182.58 6001.31 182.068C6000.54 181.471 5999.95 180.788 5999.52 180.02L5996.06 172.34C5995.64 171.572 5995 170.932 5994.14 170.42C5993.37 169.823 5992.56 169.524 5991.71 169.524H5964.7C5963.76 169.524 5962.87 169.823 5962.01 170.42C5961.25 170.932 5960.69 171.572 5960.35 172.34L5956.77 180.02C5956.43 180.788 5955.83 181.471 5954.97 182.068C5954.21 182.58 5953.4 182.836 5952.54 182.836H5930.53C5930.1 182.836 5929.67 182.751 5929.25 182.58C5928.73 182.409 5928.35 182.153 5928.09 181.812C5927.75 181.471 5927.54 181.044 5927.45 180.532C5927.37 180.02 5927.5 179.423 5927.84 178.74L5964.96 92.0839ZM5972.51 147.764H5983.9C5984.76 147.764 5985.35 147.508 5985.69 146.996C5986.12 146.399 5986.12 145.716 5985.69 144.948C5984.84 142.815 5983.82 140.34 5982.62 137.524C5981.43 134.623 5980.32 131.935 5979.29 129.46C5978.95 128.692 5978.57 128.308 5978.14 128.308C5977.72 128.308 5977.33 128.692 5976.99 129.46L5970.59 144.948C5970.25 145.716 5970.25 146.399 5970.59 146.996C5970.93 147.508 5971.57 147.764 5972.51 147.764ZM6101.94 134.58C6103.3 135.348 6104.67 136.287 6106.03 137.396C6107.4 138.505 6108.64 139.871 6109.75 141.492C6110.94 143.113 6111.88 144.991 6112.56 147.124C6113.33 149.257 6113.71 151.689 6113.71 154.42C6113.71 159.967 6112.82 164.575 6111.03 168.244C6109.32 171.828 6106.97 174.729 6103.99 176.948C6101 179.081 6097.54 180.617 6093.62 181.556C6089.78 182.409 6085.73 182.836 6081.46 182.836H6040.88C6040.03 182.836 6039.3 182.537 6038.71 181.94C6038.11 181.343 6037.81 180.617 6037.81 179.764V92.2119C6037.81 91.3586 6038.11 90.6333 6038.71 90.0359C6039.3 89.4386 6040.03 89.1399 6040.88 89.1399H6079.54C6083.63 89.1399 6087.56 89.6093 6091.31 90.5479C6095.07 91.4013 6098.35 92.8519 6101.17 94.8999C6104.07 96.9479 6106.38 99.6359 6108.08 102.964C6109.87 106.207 6110.77 110.217 6110.77 114.996C6110.77 118.836 6109.79 122.164 6107.83 124.98C6105.95 127.796 6103.9 130.015 6101.68 131.636C6100.15 132.745 6100.23 133.727 6101.94 134.58ZM6066.23 124.724H6078.13C6079.84 124.724 6081.2 124.084 6082.23 122.804C6083.25 121.439 6083.76 119.945 6083.76 118.324C6083.76 116.788 6083.12 115.465 6081.84 114.356C6080.65 113.247 6079.5 112.692 6078.39 112.692H6066.23C6065.37 112.692 6064.65 112.991 6064.05 113.588C6063.45 114.185 6063.15 114.911 6063.15 115.764V121.652C6063.15 122.505 6063.45 123.231 6064.05 123.828C6064.65 124.425 6065.37 124.724 6066.23 124.724ZM6079.67 145.844H6066.23C6065.37 145.844 6064.65 146.143 6064.05 146.74C6063.45 147.337 6063.15 148.063 6063.15 148.916V156.212C6063.15 157.065 6063.45 157.791 6064.05 158.388C6064.65 158.985 6065.37 159.284 6066.23 159.284H6080.56C6082.1 159.284 6083.55 158.644 6084.91 157.364C6086.28 156.084 6086.96 154.591 6086.96 152.884C6086.96 151.348 6086.28 149.812 6084.91 148.276C6083.63 146.655 6081.89 145.844 6079.67 145.844ZM6123.46 135.988C6123.46 129.332 6124.74 123.06 6127.3 117.172C6129.86 111.284 6133.32 106.164 6137.67 101.812C6142.02 97.3746 6147.14 93.8759 6153.03 91.3159C6158.92 88.7559 6165.19 87.4759 6171.85 87.4759C6178.5 87.4759 6184.78 88.7559 6190.66 91.3159C6196.55 93.8759 6201.67 97.3746 6206.02 101.812C6210.46 106.164 6213.96 111.284 6216.52 117.172C6219.08 123.06 6220.36 129.332 6220.36 135.988C6220.36 142.644 6219.08 148.916 6216.52 154.804C6213.96 160.692 6210.46 165.855 6206.02 170.292C6201.67 174.644 6196.55 178.1 6190.66 180.66C6184.78 183.22 6178.5 184.5 6171.85 184.5C6165.19 184.5 6158.92 183.22 6153.03 180.66C6147.14 178.1 6142.02 174.644 6137.67 170.292C6133.32 165.855 6129.86 160.692 6127.3 154.804C6124.74 148.916 6123.46 142.644 6123.46 135.988ZM6148.81 135.988C6148.81 139.231 6149.41 142.303 6150.6 145.204C6151.8 148.105 6153.42 150.665 6155.46 152.884C6157.6 155.103 6160.07 156.895 6162.89 158.26C6165.7 159.54 6168.69 160.18 6171.85 160.18C6175.01 160.18 6177.99 159.54 6180.81 158.26C6183.62 156.895 6186.1 155.103 6188.23 152.884C6190.37 150.665 6192.03 148.105 6193.22 145.204C6194.42 142.303 6195.02 139.231 6195.02 135.988C6195.02 132.831 6194.42 129.801 6193.22 126.9C6192.03 123.913 6190.37 121.353 6188.23 119.22C6186.1 117.001 6183.62 115.252 6180.81 113.972C6177.99 112.607 6175.01 111.924 6171.85 111.924C6168.69 111.924 6165.7 112.607 6162.89 113.972C6160.07 115.252 6157.6 117.001 6155.46 119.22C6153.42 121.353 6151.8 123.913 6150.6 126.9C6149.41 129.801 6148.81 132.831 6148.81 135.988ZM6255.83 182.836H6236.76C6235.91 182.836 6235.18 182.537 6234.58 181.94C6233.99 181.343 6233.69 180.617 6233.69 179.764V92.2119C6233.69 91.3586 6233.99 90.6333 6234.58 90.0359C6235.18 89.4386 6235.91 89.1399 6236.76 89.1399H6276.57C6281.52 89.1399 6286.08 89.9933 6290.26 91.6999C6294.45 93.3213 6297.99 95.6253 6300.89 98.6119C6303.88 101.599 6306.18 105.14 6307.8 109.236C6309.51 113.332 6310.36 117.855 6310.36 122.804C6310.36 125.535 6310.02 128.265 6309.34 130.996C6308.74 133.641 6307.84 136.159 6306.65 138.548C6305.45 140.937 6304.05 143.113 6302.42 145.076C6300.8 146.953 6298.97 148.532 6296.92 149.812C6296.24 150.324 6295.77 150.964 6295.51 151.732C6295.34 152.415 6295.51 153.097 6296.02 153.78C6299.27 158.047 6302.68 162.441 6306.26 166.964C6309.85 171.487 6313.05 175.625 6315.86 179.38C6316.38 180.063 6316.5 180.831 6316.25 181.684C6315.99 182.452 6315.44 182.836 6314.58 182.836H6290.78C6289.92 182.836 6288.98 182.623 6287.96 182.196C6287.02 181.684 6286.3 181.087 6285.78 180.404C6283.05 176.82 6280.32 173.193 6277.59 169.524C6274.95 165.855 6272.3 162.143 6269.66 158.388C6269.14 157.705 6268.42 157.151 6267.48 156.724C6266.54 156.212 6265.65 155.956 6264.79 155.956H6261.98C6261.12 155.956 6260.4 156.255 6259.8 156.852C6259.2 157.449 6258.9 158.175 6258.9 159.028V179.764C6258.9 180.617 6258.61 181.343 6258.01 181.94C6257.41 182.537 6256.69 182.836 6255.83 182.836ZM6261.98 132.404H6275.54C6276.57 132.404 6277.64 132.233 6278.74 131.892C6279.85 131.465 6280.88 130.868 6281.82 130.1C6282.76 129.247 6283.52 128.223 6284.12 127.028C6284.72 125.833 6285.02 124.425 6285.02 122.804C6285.02 121.951 6284.85 120.969 6284.5 119.86C6284.25 118.665 6283.74 117.556 6282.97 116.532C6282.29 115.423 6281.3 114.527 6280.02 113.844C6278.83 113.076 6277.34 112.692 6275.54 112.692H6261.98C6261.12 112.692 6260.4 112.991 6259.8 113.588C6259.2 114.185 6258.9 114.911 6258.9 115.764V129.332C6258.9 130.185 6259.2 130.911 6259.8 131.508C6260.4 132.105 6261.12 132.404 6261.98 132.404ZM6355.21 92.0839C6355.55 91.3159 6356.1 90.6759 6356.87 90.1639C6357.73 89.5666 6358.62 89.2679 6359.56 89.2679H6377.48C6378.33 89.2679 6379.14 89.5666 6379.91 90.1639C6380.77 90.6759 6381.36 91.3159 6381.7 92.0839L6419.08 179.124C6419.42 179.892 6419.34 180.703 6418.82 181.556C6418.4 182.409 6417.5 182.836 6416.14 182.836H6394.25C6393.31 182.836 6392.41 182.58 6391.56 182.068C6390.79 181.471 6390.2 180.788 6389.77 180.02L6386.31 172.34C6385.89 171.572 6385.25 170.932 6384.39 170.42C6383.62 169.823 6382.81 169.524 6381.96 169.524H6354.95C6354.01 169.524 6353.12 169.823 6352.26 170.42C6351.5 170.932 6350.94 171.572 6350.6 172.34L6347.02 180.02C6346.68 180.788 6346.08 181.471 6345.22 182.068C6344.46 182.58 6343.65 182.836 6342.79 182.836H6320.78C6320.35 182.836 6319.92 182.751 6319.5 182.58C6318.98 182.409 6318.6 182.153 6318.34 181.812C6318 181.471 6317.79 181.044 6317.7 180.532C6317.62 180.02 6317.75 179.423 6318.09 178.74L6355.21 92.0839ZM6362.76 147.764H6374.15C6375.01 147.764 6375.6 147.508 6375.94 146.996C6376.37 146.399 6376.37 145.716 6375.94 144.948C6375.09 142.815 6374.07 140.34 6372.87 137.524C6371.68 134.623 6370.57 131.935 6369.54 129.46C6369.2 128.692 6368.82 128.308 6368.39 128.308C6367.97 128.308 6367.58 128.692 6367.24 129.46L6360.84 144.948C6360.5 145.716 6360.5 146.399 6360.84 146.996C6361.18 147.508 6361.82 147.764 6362.76 147.764ZM6479.75 112.692H6461.83C6460.98 112.692 6460.25 112.991 6459.65 113.588C6459.06 114.185 6458.76 114.911 6458.76 115.764V179.764C6458.76 180.617 6458.46 181.343 6457.86 181.94C6457.35 182.537 6456.62 182.836 6455.68 182.836H6436.48C6435.63 182.836 6434.91 182.537 6434.31 181.94C6433.71 181.343 6433.41 180.617 6433.41 179.764V115.764C6433.41 114.911 6433.11 114.185 6432.52 113.588C6432 112.991 6431.28 112.692 6430.34 112.692H6412.16C6411.31 112.692 6410.59 112.393 6409.99 111.796C6409.39 111.199 6409.09 110.473 6409.09 109.62V92.2119C6409.09 91.3586 6409.39 90.6333 6409.99 90.0359C6410.59 89.4386 6411.31 89.1399 6412.16 89.1399H6479.75C6480.69 89.1399 6481.41 89.4386 6481.92 90.0359C6482.52 90.6333 6482.82 91.3586 6482.82 92.2119V109.62C6482.82 110.473 6482.52 111.199 6481.92 111.796C6481.41 112.393 6480.69 112.692 6479.75 112.692ZM6517.9 115.764V121.14C6517.9 121.993 6518.2 122.719 6518.8 123.316C6519.39 123.913 6520.12 124.212 6520.97 124.212H6555.66C6556.51 124.212 6557.24 124.511 6557.84 125.108C6558.43 125.705 6558.73 126.431 6558.73 127.284V144.948C6558.73 145.801 6558.43 146.527 6557.84 147.124C6557.24 147.721 6556.51 148.02 6555.66 148.02H6520.97C6520.12 148.02 6519.39 148.319 6518.8 148.916C6518.2 149.513 6517.9 150.239 6517.9 151.092V155.956C6517.9 156.809 6518.2 157.535 6518.8 158.132C6519.39 158.729 6520.12 159.028 6520.97 159.028H6560.78C6561.63 159.028 6562.36 159.327 6562.96 159.924C6563.55 160.521 6563.85 161.247 6563.85 162.1V179.764C6563.85 180.617 6563.55 181.343 6562.96 181.94C6562.36 182.537 6561.63 182.836 6560.78 182.836H6495.63C6494.78 182.836 6494.05 182.537 6493.45 181.94C6492.86 181.343 6492.56 180.617 6492.56 179.764V92.2119C6492.56 91.3586 6492.86 90.6333 6493.45 90.0359C6494.05 89.4386 6494.78 89.1399 6495.63 89.1399H6560.78C6561.63 89.1399 6562.36 89.4386 6562.96 90.0359C6563.55 90.6333 6563.85 91.3586 6563.85 92.2119V109.62C6563.85 110.473 6563.55 111.199 6562.96 111.796C6562.36 112.393 6561.63 112.692 6560.78 112.692H6520.97C6520.12 112.692 6519.39 112.991 6518.8 113.588C6518.2 114.185 6517.9 114.911 6517.9 115.764Z" fill="#231F20"/>
<path d="M6716.94 114.167L6768.11 108.417L6737.77 150.333L6768.44 191.75L6716.94 186.333L6696.36 233.667L6675.27 186.5L6624.11 192.25L6654.44 150.333L6623.77 108.917L6675.27 114.333L6695.86 67L6716.94 114.167Z" fill="#231F20"/>
<path d="M6911.61 114.167L6962.77 108.417L6932.44 150.333L6963.11 191.75L6911.61 186.333L6891.02 233.667L6869.94 186.5L6818.77 192.25L6849.11 150.333L6818.44 108.917L6869.94 114.333L6890.52 67L6911.61 114.167Z" fill="#231F20"/>
<path d="M7106.27 114.167L7157.44 108.417L7127.11 150.333L7157.77 191.75L7106.27 186.333L7085.69 233.667L7064.61 186.5L7013.44 192.25L7043.77 150.333L7013.11 108.917L7064.61 114.333L7085.19 67L7106.27 114.167Z" fill="#231F20"/>
<path d="M7300.94 114.167L7352.11 108.417L7321.77 150.333L7352.44 191.75L7300.94 186.333L7280.36 233.667L7259.27 186.5L7208.11 192.25L7238.44 150.333L7207.77 108.917L7259.27 114.333L7279.86 67L7300.94 114.167Z" fill="#231F20"/>
<path d="M7625.29 79.625L7696 150.336L7625.29 221.046L7604.07 199.833L7653.57 150.336L7604.07 100.838L7625.29 79.625Z" fill="#231F20"/>
<path d="M7563.86 79.625L7634.57 150.336L7563.86 221.046L7542.65 199.833L7592.15 150.336L7542.65 100.838L7563.86 79.625Z" fill="#231F20"/>
<path d="M7502.44 79.625L7573.15 150.336L7502.44 221.046L7481.23 199.833L7530.73 150.336L7481.23 100.838L7502.44 79.625Z" fill="#231F20"/>
<path d="M7467.15 79.625L7537.86 150.336L7467.15 221.046L7445.94 199.833L7495.44 150.336L7445.94 100.838L7467.15 79.625Z" fill="#231F20"/>
<path d="M7402.44 79.625H7502.44V220.625H7402.44V79.625Z" fill="#231F20"/>
<path d="M7819.6 112.692H7801.68C7800.82 112.692 7800.1 112.991 7799.5 113.588C7798.9 114.185 7798.6 114.911 7798.6 115.764V179.764C7798.6 180.617 7798.31 181.343 7797.71 181.94C7797.2 182.537 7796.47 182.836 7795.53 182.836H7776.33C7775.48 182.836 7774.75 182.537 7774.16 181.94C7773.56 181.343 7773.26 180.617 7773.26 179.764V115.764C7773.26 114.911 7772.96 114.185 7772.36 113.588C7771.85 112.991 7771.13 112.692 7770.19 112.692H7752.01C7751.16 112.692 7750.43 112.393 7749.84 111.796C7749.24 111.199 7748.94 110.473 7748.94 109.62V92.2119C7748.94 91.3586 7749.24 90.6333 7749.84 90.0359C7750.43 89.4386 7751.16 89.1399 7752.01 89.1399H7819.6C7820.53 89.1399 7821.26 89.4386 7821.77 90.0359C7822.37 90.6333 7822.67 91.3586 7822.67 92.2119V109.62C7822.67 110.473 7822.37 111.199 7821.77 111.796C7821.26 112.393 7820.53 112.692 7819.6 112.692ZM7857.75 115.764V121.14C7857.75 121.993 7858.05 122.719 7858.65 123.316C7859.24 123.913 7859.97 124.212 7860.82 124.212H7895.51C7896.36 124.212 7897.09 124.511 7897.69 125.108C7898.28 125.705 7898.58 126.431 7898.58 127.284V144.948C7898.58 145.801 7898.28 146.527 7897.69 147.124C7897.09 147.721 7896.36 148.02 7895.51 148.02H7860.82C7859.97 148.02 7859.24 148.319 7858.65 148.916C7858.05 149.513 7857.75 150.239 7857.75 151.092V155.956C7857.75 156.809 7858.05 157.535 7858.65 158.132C7859.24 158.729 7859.97 159.028 7860.82 159.028H7900.63C7901.48 159.028 7902.21 159.327 7902.81 159.924C7903.4 160.521 7903.7 161.247 7903.7 162.1V179.764C7903.7 180.617 7903.4 181.343 7902.81 181.94C7902.21 182.537 7901.48 182.836 7900.63 182.836H7835.48C7834.62 182.836 7833.9 182.537 7833.3 181.94C7832.7 181.343 7832.41 180.617 7832.41 179.764V92.2119C7832.41 91.3586 7832.7 90.6333 7833.3 90.0359C7833.9 89.4386 7834.62 89.1399 7835.48 89.1399H7900.63C7901.48 89.1399 7902.21 89.4386 7902.81 90.0359C7903.4 90.6333 7903.7 91.3586 7903.7 92.2119V109.62C7903.7 110.473 7903.4 111.199 7902.81 111.796C7902.21 112.393 7901.48 112.692 7900.63 112.692H7860.82C7859.97 112.692 7859.24 112.991 7858.65 113.588C7858.05 114.185 7857.75 114.911 7857.75 115.764ZM8007.9 157.876C8005.43 161.887 8002.7 165.556 7999.71 168.884C7996.73 172.127 7993.35 174.9 7989.6 177.204C7985.93 179.508 7981.83 181.3 7977.31 182.58C7972.79 183.86 7967.8 184.5 7962.34 184.5C7955.51 184.5 7949.11 183.22 7943.14 180.66C7937.16 178.1 7931.91 174.644 7927.39 170.292C7922.95 165.94 7919.46 160.82 7916.9 154.932C7914.34 149.044 7913.06 142.772 7913.06 136.116C7913.06 129.46 7914.34 123.188 7916.9 117.3C7919.46 111.412 7922.95 106.292 7927.39 101.94C7931.91 97.5879 7937.16 94.1319 7943.14 91.5719C7949.11 89.0119 7955.51 87.7319 7962.34 87.7319C7967.97 87.7319 7973.05 88.3719 7977.57 89.6519C7982.09 90.9319 7986.19 92.7239 7989.86 95.0279C7993.53 97.3319 7996.81 100.148 7999.71 103.476C8002.7 106.719 8005.43 110.303 8007.9 114.228C8008.33 114.911 8008.42 115.636 8008.16 116.404C8007.9 117.172 8007.39 117.727 8006.62 118.068L7988.45 125.236C7987.59 125.577 7986.74 125.577 7985.89 125.236C7985.03 124.895 7984.39 124.383 7983.97 123.7C7981.49 119.775 7978.51 116.788 7975.01 114.74C7971.51 112.607 7967.29 111.54 7962.34 111.54C7959.09 111.54 7956.02 112.223 7953.12 113.588C7950.3 114.953 7947.83 116.788 7945.7 119.092C7943.56 121.311 7941.9 123.913 7940.7 126.9C7939.51 129.887 7938.91 132.959 7938.91 136.116C7938.91 139.359 7939.51 142.473 7940.7 145.46C7941.9 148.361 7943.56 150.921 7945.7 153.14C7947.83 155.359 7950.3 157.151 7953.12 158.516C7956.02 159.881 7959.09 160.564 7962.34 160.564C7967.03 160.564 7971.25 159.455 7975.01 157.236C7978.85 154.932 7981.88 151.988 7984.1 148.404C7984.52 147.721 7985.12 147.209 7985.89 146.868C7986.74 146.527 7987.59 146.527 7988.45 146.868L8006.62 154.036C8007.39 154.377 8007.9 154.932 8008.16 155.7C8008.42 156.383 8008.33 157.108 8007.9 157.876ZM8100.99 92.2119V179.764C8100.99 180.617 8100.69 181.343 8100.09 181.94C8099.5 182.537 8098.77 182.836 8097.92 182.836H8078.72C8077.78 182.836 8077.01 182.537 8076.41 181.94C8075.9 181.343 8075.65 180.617 8075.65 179.764V152.372C8075.65 151.519 8075.35 150.793 8074.75 150.196C8074.15 149.599 8073.43 149.3 8072.57 149.3H8046.21C8045.27 149.3 8044.5 149.599 8043.9 150.196C8043.39 150.793 8043.13 151.519 8043.13 152.372V179.764C8043.13 180.617 8042.83 181.343 8042.24 181.94C8041.64 182.537 8040.91 182.836 8040.06 182.836H8020.99C8020.05 182.836 8019.28 182.537 8018.69 181.94C8018.17 181.343 8017.92 180.617 8017.92 179.764V92.2119C8017.92 91.3586 8018.17 90.6333 8018.69 90.0359C8019.28 89.4386 8020.05 89.1399 8020.99 89.1399H8040.06C8040.91 89.1399 8041.64 89.4386 8042.24 90.0359C8042.83 90.6333 8043.13 91.3586 8043.13 92.2119V122.548C8043.13 123.401 8043.39 124.127 8043.9 124.724C8044.5 125.321 8045.27 125.62 8046.21 125.62H8072.57C8073.43 125.62 8074.15 125.321 8074.75 124.724C8075.35 124.127 8075.65 123.401 8075.65 122.548V92.2119C8075.65 91.3586 8075.9 90.6333 8076.41 90.0359C8077.01 89.4386 8077.78 89.1399 8078.72 89.1399H8097.92C8098.77 89.1399 8099.5 89.4386 8100.09 90.0359C8100.69 90.6333 8100.99 91.3586 8100.99 92.2119ZM8184.39 170.548C8184.39 172.34 8184.05 174.047 8183.37 175.668C8182.69 177.289 8181.75 178.697 8180.55 179.892C8179.36 181.087 8177.95 182.025 8176.33 182.708C8174.71 183.391 8173 183.732 8171.21 183.732C8169.42 183.732 8167.71 183.391 8166.09 182.708C8164.55 182.025 8163.19 181.087 8161.99 179.892C8160.8 178.697 8159.86 177.289 8159.18 175.668C8158.5 174.047 8158.15 172.34 8158.15 170.548C8158.15 168.756 8158.5 167.092 8159.18 165.556C8159.86 164.02 8160.8 162.655 8161.99 161.46C8163.19 160.265 8164.55 159.327 8166.09 158.644C8167.71 157.961 8169.42 157.62 8171.21 157.62C8173 157.62 8174.71 157.961 8176.33 158.644C8177.95 159.327 8179.36 160.265 8180.55 161.46C8181.75 162.655 8182.69 164.02 8183.37 165.556C8184.05 167.092 8184.39 168.756 8184.39 170.548ZM8327.65 157.876C8325.18 161.887 8322.45 165.556 8319.46 168.884C8316.48 172.127 8313.1 174.9 8309.35 177.204C8305.68 179.508 8301.58 181.3 8297.06 182.58C8292.54 183.86 8287.55 184.5 8282.09 184.5C8275.26 184.5 8268.86 183.22 8262.89 180.66C8256.91 178.1 8251.66 174.644 8247.14 170.292C8242.7 165.94 8239.21 160.82 8236.65 154.932C8234.09 149.044 8232.81 142.772 8232.81 136.116C8232.81 129.46 8234.09 123.188 8236.65 117.3C8239.21 111.412 8242.7 106.292 8247.14 101.94C8251.66 97.5879 8256.91 94.1319 8262.89 91.5719C8268.86 89.0119 8275.26 87.7319 8282.09 87.7319C8287.72 87.7319 8292.8 88.3719 8297.32 89.6519C8301.84 90.9319 8305.94 92.7239 8309.61 95.0279C8313.28 97.3319 8316.56 100.148 8319.46 103.476C8322.45 106.719 8325.18 110.303 8327.65 114.228C8328.08 114.911 8328.17 115.636 8327.91 116.404C8327.65 117.172 8327.14 117.727 8326.37 118.068L8308.2 125.236C8307.34 125.577 8306.49 125.577 8305.64 125.236C8304.78 124.895 8304.14 124.383 8303.72 123.7C8301.24 119.775 8298.26 116.788 8294.76 114.74C8291.26 112.607 8287.04 111.54 8282.09 111.54C8278.84 111.54 8275.77 112.223 8272.87 113.588C8270.05 114.953 8267.58 116.788 8265.45 119.092C8263.31 121.311 8261.65 123.913 8260.45 126.9C8259.26 129.887 8258.66 132.959 8258.66 136.116C8258.66 139.359 8259.26 142.473 8260.45 145.46C8261.65 148.361 8263.31 150.921 8265.45 153.14C8267.58 155.359 8270.05 157.151 8272.87 158.516C8275.77 159.881 8278.84 160.564 8282.09 160.564C8286.78 160.564 8291 159.455 8294.76 157.236C8298.6 154.932 8301.63 151.988 8303.85 148.404C8304.27 147.721 8304.87 147.209 8305.64 146.868C8306.49 146.527 8307.34 146.527 8308.2 146.868L8326.37 154.036C8327.14 154.377 8327.65 154.932 8327.91 155.7C8328.17 156.383 8328.08 157.108 8327.65 157.876ZM8333.19 135.988C8333.19 129.332 8334.47 123.06 8337.03 117.172C8339.59 111.284 8343.04 106.164 8347.4 101.812C8351.75 97.3746 8356.87 93.8759 8362.76 91.3159C8368.64 88.7559 8374.92 87.4759 8381.57 87.4759C8388.23 87.4759 8394.5 88.7559 8400.39 91.3159C8406.28 93.8759 8411.4 97.3746 8415.75 101.812C8420.18 106.164 8423.68 111.284 8426.24 117.172C8428.8 123.06 8430.08 129.332 8430.08 135.988C8430.08 142.644 8428.8 148.916 8426.24 154.804C8423.68 160.692 8420.18 165.855 8415.75 170.292C8411.4 174.644 8406.28 178.1 8400.39 180.66C8394.5 183.22 8388.23 184.5 8381.57 184.5C8374.92 184.5 8368.64 183.22 8362.76 180.66C8356.87 178.1 8351.75 174.644 8347.4 170.292C8343.04 165.855 8339.59 160.692 8337.03 154.804C8334.47 148.916 8333.19 142.644 8333.19 135.988ZM8358.53 135.988C8358.53 139.231 8359.13 142.303 8360.32 145.204C8361.52 148.105 8363.14 150.665 8365.19 152.884C8367.32 155.103 8369.8 156.895 8372.61 158.26C8375.43 159.54 8378.41 160.18 8381.57 160.18C8384.73 160.18 8387.72 159.54 8390.53 158.26C8393.35 156.895 8395.82 155.103 8397.96 152.884C8400.09 150.665 8401.75 148.105 8402.95 145.204C8404.14 142.303 8404.74 139.231 8404.74 135.988C8404.74 132.831 8404.14 129.801 8402.95 126.9C8401.75 123.913 8400.09 121.353 8397.96 119.22C8395.82 117.001 8393.35 115.252 8390.53 113.972C8387.72 112.607 8384.73 111.924 8381.57 111.924C8378.41 111.924 8375.43 112.607 8372.61 113.972C8369.8 115.252 8367.32 117.001 8365.19 119.22C8363.14 121.353 8361.52 123.913 8360.32 126.9C8359.13 129.801 8358.53 132.831 8358.53 135.988ZM8547.86 92.3399V179.764C8547.86 180.617 8547.56 181.343 8546.96 181.94C8546.37 182.537 8545.64 182.836 8544.79 182.836H8525.46C8524.61 182.836 8523.88 182.537 8523.28 181.94C8522.69 181.343 8522.39 180.617 8522.39 179.764V138.548C8522.39 137.695 8522 137.225 8521.24 137.14C8520.47 137.055 8519.83 137.353 8519.32 138.036L8497.81 172.724C8497.38 173.407 8496.7 173.748 8495.76 173.748C8494.82 173.748 8494.1 173.407 8493.59 172.724L8472.08 138.036C8471.66 137.353 8471.06 137.055 8470.29 137.14C8469.52 137.225 8469.14 137.695 8469.14 138.548V179.764C8469.14 180.617 8468.84 181.343 8468.24 181.94C8467.65 182.537 8466.92 182.836 8466.07 182.836H8446.74C8445.89 182.836 8445.16 182.537 8444.56 181.94C8443.97 181.343 8443.67 180.617 8443.67 179.764V92.3399C8443.67 91.4866 8443.97 90.7613 8444.56 90.1639C8445.16 89.5666 8445.89 89.2679 8446.74 89.2679H8464.66C8465.51 89.2679 8466.41 89.5239 8467.35 90.0359C8468.29 90.5479 8468.97 91.1453 8469.4 91.8279L8493.97 127.924C8494.48 128.607 8495.08 128.948 8495.76 128.948C8496.45 128.948 8497 128.607 8497.43 127.924L8522 91.8279C8522.52 91.1453 8523.24 90.5479 8524.18 90.0359C8525.12 89.5239 8526.01 89.2679 8526.87 89.2679H8544.79C8545.64 89.2679 8546.37 89.5666 8546.96 90.1639C8547.56 90.7613 8547.86 91.4866 8547.86 92.3399ZM8672.61 92.3399V179.764C8672.61 180.617 8672.31 181.343 8671.71 181.94C8671.12 182.537 8670.39 182.836 8669.54 182.836H8650.21C8649.36 182.836 8648.63 182.537 8648.03 181.94C8647.44 181.343 8647.14 180.617 8647.14 179.764V138.548C8647.14 137.695 8646.75 137.225 8645.99 137.14C8645.22 137.055 8644.58 137.353 8644.07 138.036L8622.56 172.724C8622.13 173.407 8621.45 173.748 8620.51 173.748C8619.57 173.748 8618.85 173.407 8618.34 172.724L8596.83 138.036C8596.41 137.353 8595.81 137.055 8595.04 137.14C8594.27 137.225 8593.89 137.695 8593.89 138.548V179.764C8593.89 180.617 8593.59 181.343 8592.99 181.94C8592.4 182.537 8591.67 182.836 8590.82 182.836H8571.49C8570.64 182.836 8569.91 182.537 8569.31 181.94C8568.72 181.343 8568.42 180.617 8568.42 179.764V92.3399C8568.42 91.4866 8568.72 90.7613 8569.31 90.1639C8569.91 89.5666 8570.64 89.2679 8571.49 89.2679H8589.41C8590.26 89.2679 8591.16 89.5239 8592.1 90.0359C8593.04 90.5479 8593.72 91.1453 8594.15 91.8279L8618.72 127.924C8619.23 128.607 8619.83 128.948 8620.51 128.948C8621.2 128.948 8621.75 128.607 8622.18 127.924L8646.75 91.8279C8647.27 91.1453 8647.99 90.5479 8648.93 90.0359C8649.87 89.5239 8650.76 89.2679 8651.62 89.2679H8669.54C8670.39 89.2679 8671.12 89.5666 8671.71 90.1639C8672.31 90.7613 8672.61 91.4866 8672.61 92.3399ZM8692.78 92.3399C8692.78 91.4866 8693.08 90.7613 8693.68 90.1639C8694.28 89.5666 8695 89.2679 8695.86 89.2679H8715.18C8716.04 89.2679 8716.76 89.5666 8717.36 90.1639C8717.96 90.7613 8718.26 91.4866 8718.26 92.3399V144.18C8718.26 147.508 8718.77 150.281 8719.79 152.5C8720.9 154.633 8722.22 156.34 8723.76 157.62C8725.38 158.815 8727.09 159.668 8728.88 160.18C8730.67 160.692 8732.29 160.948 8733.74 160.948C8735.19 160.948 8736.82 160.692 8738.61 160.18C8740.4 159.668 8742.06 158.815 8743.6 157.62C8745.14 156.34 8746.42 154.633 8747.44 152.5C8748.55 150.281 8749.1 147.508 8749.1 144.18V92.3399C8749.1 91.4866 8749.4 90.7613 8750 90.1639C8750.6 89.5666 8751.32 89.2679 8752.18 89.2679H8771.5C8772.36 89.2679 8773.08 89.5666 8773.68 90.1639C8774.28 90.7613 8774.58 91.4866 8774.58 92.3399V144.18C8774.58 150.239 8773.59 155.743 8771.63 160.692C8769.75 165.641 8767.02 169.865 8763.44 173.364C8759.86 176.863 8755.55 179.593 8750.51 181.556C8745.48 183.433 8739.89 184.372 8733.74 184.372C8727.6 184.372 8722.01 183.433 8716.98 181.556C8711.94 179.593 8707.63 176.863 8704.05 173.364C8700.46 169.865 8697.69 165.641 8695.73 160.692C8693.76 155.743 8692.78 150.239 8692.78 144.18V92.3399ZM8881.72 92.2119V179.764C8881.72 180.617 8881.42 181.343 8880.83 181.94C8880.23 182.537 8879.5 182.836 8878.65 182.836H8859.71C8858.85 182.836 8857.96 182.58 8857.02 182.068C8856.08 181.556 8855.35 180.959 8854.84 180.276L8821.43 133.3C8820.92 132.617 8820.37 132.361 8819.77 132.532C8819.26 132.617 8819 133.087 8819 133.94V179.764C8819 180.617 8818.7 181.343 8818.11 181.94C8817.51 182.537 8816.78 182.836 8815.93 182.836H8796.86C8796 182.836 8795.28 182.537 8794.68 181.94C8794.08 181.343 8793.79 180.617 8793.79 179.764V92.2119C8793.79 91.3586 8794.08 90.6333 8794.68 90.0359C8795.28 89.4386 8796 89.1399 8796.86 89.1399H8816.06C8816.91 89.1399 8817.81 89.3959 8818.75 89.9079C8819.68 90.3346 8820.41 90.8893 8820.92 91.5719L8854.2 138.548C8854.71 139.231 8855.23 139.529 8855.74 139.444C8856.34 139.359 8856.63 138.889 8856.63 138.036V92.2119C8856.63 91.3586 8856.93 90.6333 8857.53 90.0359C8858.13 89.4386 8858.85 89.1399 8859.71 89.1399H8878.65C8879.5 89.1399 8880.23 89.4386 8880.83 90.0359C8881.42 90.6333 8881.72 91.3586 8881.72 92.2119ZM8924.33 182.836H8905C8904.07 182.836 8903.3 182.537 8902.7 181.94C8902.19 181.343 8901.93 180.617 8901.93 179.764V92.3399C8901.93 91.4866 8902.19 90.7613 8902.7 90.1639C8903.3 89.5666 8904.07 89.2679 8905 89.2679H8924.33C8925.19 89.2679 8925.91 89.5666 8926.51 90.1639C8927.11 90.7613 8927.4 91.4866 8927.4 92.3399V179.764C8927.4 180.617 8927.11 181.343 8926.51 181.94C8925.91 182.537 8925.19 182.836 8924.33 182.836ZM9006.97 112.692H8989.05C8988.2 112.692 8987.47 112.991 8986.88 113.588C8986.28 114.185 8985.98 114.911 8985.98 115.764V179.764C8985.98 180.617 8985.68 181.343 8985.08 181.94C8984.57 182.537 8983.85 182.836 8982.91 182.836H8963.71C8962.85 182.836 8962.13 182.537 8961.53 181.94C8960.93 181.343 8960.64 180.617 8960.64 179.764V115.764C8960.64 114.911 8960.34 114.185 8959.74 113.588C8959.23 112.991 8958.5 112.692 8957.56 112.692H8939.39C8938.53 112.692 8937.81 112.393 8937.21 111.796C8936.61 111.199 8936.32 110.473 8936.32 109.62V92.2119C8936.32 91.3586 8936.61 90.6333 8937.21 90.0359C8937.81 89.4386 8938.53 89.1399 8939.39 89.1399H9006.97C9007.91 89.1399 9008.64 89.4386 9009.15 90.0359C9009.74 90.6333 9010.04 91.3586 9010.04 92.2119V109.62C9010.04 110.473 9009.74 111.199 9009.15 111.796C9008.64 112.393 9007.91 112.692 9006.97 112.692ZM9102.6 92.8519L9070.6 144.692C9070.17 145.46 9069.79 146.399 9069.44 147.508C9069.1 148.617 9068.93 149.599 9068.93 150.452V179.764C9068.93 180.617 9068.63 181.343 9068.04 181.94C9067.44 182.537 9066.71 182.836 9065.86 182.836H9046.53C9045.68 182.836 9044.95 182.537 9044.36 181.94C9043.76 181.343 9043.46 180.617 9043.46 179.764V150.58C9043.46 149.727 9043.29 148.745 9042.95 147.636C9042.69 146.441 9042.35 145.503 9041.92 144.82C9036.8 136.031 9031.56 127.412 9026.18 118.964C9020.89 110.516 9015.6 101.812 9010.31 92.8519C9009.88 92.0839 9009.8 91.3159 9010.05 90.5479C9010.31 89.6946 9010.86 89.2679 9011.72 89.2679H9034.5C9035.35 89.2679 9036.21 89.5239 9037.06 90.0359C9038 90.5479 9038.68 91.1879 9039.11 91.9559L9054.85 119.348C9055.28 120.031 9055.79 120.372 9056.39 120.372C9056.99 120.372 9057.5 120.031 9057.92 119.348L9073.54 91.9559C9073.97 91.1879 9074.61 90.5479 9075.46 90.0359C9076.4 89.5239 9077.29 89.2679 9078.15 89.2679H9101.19C9102.04 89.2679 9102.64 89.5666 9102.98 90.1639C9103.41 90.7613 9103.28 91.6573 9102.6 92.8519ZM9175.14 170.548C9175.14 172.34 9174.8 174.047 9174.12 175.668C9173.44 177.289 9172.5 178.697 9171.3 179.892C9170.11 181.087 9168.7 182.025 9167.08 182.708C9165.46 183.391 9163.75 183.732 9161.96 183.732C9160.17 183.732 9158.46 183.391 9156.84 182.708C9155.3 182.025 9153.94 181.087 9152.74 179.892C9151.55 178.697 9150.61 177.289 9149.93 175.668C9149.25 174.047 9148.9 172.34 9148.9 170.548C9148.9 168.756 9149.25 167.092 9149.93 165.556C9150.61 164.02 9151.55 162.655 9152.74 161.46C9153.94 160.265 9155.3 159.327 9156.84 158.644C9158.46 157.961 9160.17 157.62 9161.96 157.62C9163.75 157.62 9165.46 157.961 9167.08 158.644C9168.7 159.327 9170.11 160.265 9171.3 161.46C9172.5 162.655 9173.44 164.02 9174.12 165.556C9174.8 167.092 9175.14 168.756 9175.14 170.548ZM9318.4 157.876C9315.93 161.887 9313.2 165.556 9310.21 168.884C9307.23 172.127 9303.85 174.9 9300.1 177.204C9296.43 179.508 9292.33 181.3 9287.81 182.58C9283.29 183.86 9278.3 184.5 9272.84 184.5C9266.01 184.5 9259.61 183.22 9253.64 180.66C9247.66 178.1 9242.41 174.644 9237.89 170.292C9233.45 165.94 9229.96 160.82 9227.4 154.932C9224.84 149.044 9223.56 142.772 9223.56 136.116C9223.56 129.46 9224.84 123.188 9227.4 117.3C9229.96 111.412 9233.45 106.292 9237.89 101.94C9242.41 97.5879 9247.66 94.1319 9253.64 91.5719C9259.61 89.0119 9266.01 87.7319 9272.84 87.7319C9278.47 87.7319 9283.55 88.3719 9288.07 89.6519C9292.59 90.9319 9296.69 92.7239 9300.36 95.0279C9304.03 97.3319 9307.31 100.148 9310.21 103.476C9313.2 106.719 9315.93 110.303 9318.4 114.228C9318.83 114.911 9318.92 115.636 9318.66 116.404C9318.4 117.172 9317.89 117.727 9317.12 118.068L9298.95 125.236C9298.09 125.577 9297.24 125.577 9296.39 125.236C9295.53 124.895 9294.89 124.383 9294.47 123.7C9291.99 119.775 9289.01 116.788 9285.51 114.74C9282.01 112.607 9277.79 111.54 9272.84 111.54C9269.59 111.54 9266.52 112.223 9263.62 113.588C9260.8 114.953 9258.33 116.788 9256.2 119.092C9254.06 121.311 9252.4 123.913 9251.2 126.9C9250.01 129.887 9249.41 132.959 9249.41 136.116C9249.41 139.359 9250.01 142.473 9251.2 145.46C9252.4 148.361 9254.06 150.921 9256.2 153.14C9258.33 155.359 9260.8 157.151 9263.62 158.516C9266.52 159.881 9269.59 160.564 9272.84 160.564C9277.53 160.564 9281.75 159.455 9285.51 157.236C9289.35 154.932 9292.38 151.988 9294.6 148.404C9295.02 147.721 9295.62 147.209 9296.39 146.868C9297.24 146.527 9298.09 146.527 9298.95 146.868L9317.12 154.036C9317.89 154.377 9318.4 154.932 9318.66 155.7C9318.92 156.383 9318.83 157.108 9318.4 157.876ZM9323.94 135.988C9323.94 129.332 9325.22 123.06 9327.78 117.172C9330.34 111.284 9333.79 106.164 9338.15 101.812C9342.5 97.3746 9347.62 93.8759 9353.51 91.3159C9359.39 88.7559 9365.67 87.4759 9372.32 87.4759C9378.98 87.4759 9385.25 88.7559 9391.14 91.3159C9397.03 93.8759 9402.15 97.3746 9406.5 101.812C9410.93 106.164 9414.43 111.284 9416.99 117.172C9419.55 123.06 9420.83 129.332 9420.83 135.988C9420.83 142.644 9419.55 148.916 9416.99 154.804C9414.43 160.692 9410.93 165.855 9406.5 170.292C9402.15 174.644 9397.03 178.1 9391.14 180.66C9385.25 183.22 9378.98 184.5 9372.32 184.5C9365.67 184.5 9359.39 183.22 9353.51 180.66C9347.62 178.1 9342.5 174.644 9338.15 170.292C9333.79 165.855 9330.34 160.692 9327.78 154.804C9325.22 148.916 9323.94 142.644 9323.94 135.988ZM9349.28 135.988C9349.28 139.231 9349.88 142.303 9351.07 145.204C9352.27 148.105 9353.89 150.665 9355.94 152.884C9358.07 155.103 9360.55 156.895 9363.36 158.26C9366.18 159.54 9369.16 160.18 9372.32 160.18C9375.48 160.18 9378.47 159.54 9381.28 158.26C9384.1 156.895 9386.57 155.103 9388.71 152.884C9390.84 150.665 9392.5 148.105 9393.7 145.204C9394.89 142.303 9395.49 139.231 9395.49 135.988C9395.49 132.831 9394.89 129.801 9393.7 126.9C9392.5 123.913 9390.84 121.353 9388.71 119.22C9386.57 117.001 9384.1 115.252 9381.28 113.972C9378.47 112.607 9375.48 111.924 9372.32 111.924C9369.16 111.924 9366.18 112.607 9363.36 113.972C9360.55 115.252 9358.07 117.001 9355.94 119.22C9353.89 121.353 9352.27 123.913 9351.07 126.9C9349.88 129.801 9349.28 132.831 9349.28 135.988ZM9503.92 162.356V179.764C9503.92 180.617 9503.62 181.343 9503.03 181.94C9502.43 182.537 9501.7 182.836 9500.85 182.836H9436.98C9436.04 182.836 9435.27 182.537 9434.67 181.94C9434.16 181.343 9433.91 180.617 9433.91 179.764V92.2119C9433.91 91.3586 9434.16 90.6333 9434.67 90.0359C9435.27 89.4386 9436.04 89.1399 9436.98 89.1399H9456.18C9457.03 89.1399 9457.76 89.4386 9458.35 90.0359C9458.95 90.6333 9459.25 91.3586 9459.25 92.2119V156.212C9459.25 157.065 9459.51 157.791 9460.02 158.388C9460.61 158.985 9461.38 159.284 9462.32 159.284H9500.85C9501.7 159.284 9502.43 159.583 9503.03 160.18C9503.62 160.777 9503.92 161.503 9503.92 162.356ZM9582.67 162.356V179.764C9582.67 180.617 9582.37 181.343 9581.78 181.94C9581.18 182.537 9580.45 182.836 9579.6 182.836H9515.73C9514.79 182.836 9514.02 182.537 9513.42 181.94C9512.91 181.343 9512.66 180.617 9512.66 179.764V92.2119C9512.66 91.3586 9512.91 90.6333 9513.42 90.0359C9514.02 89.4386 9514.79 89.1399 9515.73 89.1399H9534.93C9535.78 89.1399 9536.51 89.4386 9537.1 90.0359C9537.7 90.6333 9538 91.3586 9538 92.2119V156.212C9538 157.065 9538.26 157.791 9538.77 158.388C9539.36 158.985 9540.13 159.284 9541.07 159.284H9579.6C9580.45 159.284 9581.18 159.583 9581.78 160.18C9582.37 160.777 9582.67 161.503 9582.67 162.356ZM9622.18 92.0839C9622.52 91.3159 9623.08 90.6759 9623.85 90.1639C9624.7 89.5666 9625.59 89.2679 9626.53 89.2679H9644.45C9645.31 89.2679 9646.12 89.5666 9646.89 90.1639C9647.74 90.6759 9648.34 91.3159 9648.68 92.0839L9686.05 179.124C9686.39 179.892 9686.31 180.703 9685.8 181.556C9685.37 182.409 9684.47 182.836 9683.11 182.836H9661.22C9660.28 182.836 9659.39 182.58 9658.53 182.068C9657.77 181.471 9657.17 180.788 9656.74 180.02L9653.29 172.34C9652.86 171.572 9652.22 170.932 9651.37 170.42C9650.6 169.823 9649.79 169.524 9648.93 169.524H9621.93C9620.99 169.524 9620.09 169.823 9619.24 170.42C9618.47 170.932 9617.91 171.572 9617.57 172.34L9613.99 180.02C9613.65 180.788 9613.05 181.471 9612.2 182.068C9611.43 182.58 9610.62 182.836 9609.77 182.836H9587.75C9587.32 182.836 9586.9 182.751 9586.47 182.58C9585.96 182.409 9585.57 182.153 9585.32 181.812C9584.98 181.471 9584.76 181.044 9584.68 180.532C9584.59 180.02 9584.72 179.423 9585.06 178.74L9622.18 92.0839ZM9629.73 147.764H9641.13C9641.98 147.764 9642.58 147.508 9642.92 146.996C9643.34 146.399 9643.34 145.716 9642.92 144.948C9642.06 142.815 9641.04 140.34 9639.85 137.524C9638.65 134.623 9637.54 131.935 9636.52 129.46C9636.18 128.692 9635.79 128.308 9635.37 128.308C9634.94 128.308 9634.55 128.692 9634.21 129.46L9627.81 144.948C9627.47 145.716 9627.47 146.399 9627.81 146.996C9628.15 147.508 9628.79 147.764 9629.73 147.764ZM9759.16 134.58C9760.53 135.348 9761.89 136.287 9763.26 137.396C9764.62 138.505 9765.86 139.871 9766.97 141.492C9768.16 143.113 9769.1 144.991 9769.79 147.124C9770.55 149.257 9770.94 151.689 9770.94 154.42C9770.94 159.967 9770.04 164.575 9768.25 168.244C9766.54 171.828 9764.2 174.729 9761.21 176.948C9758.22 179.081 9754.77 180.617 9750.84 181.556C9747 182.409 9742.95 182.836 9738.68 182.836H9698.11C9697.25 182.836 9696.53 182.537 9695.93 181.94C9695.33 181.343 9695.03 180.617 9695.03 179.764V92.2119C9695.03 91.3586 9695.33 90.6333 9695.93 90.0359C9696.53 89.4386 9697.25 89.1399 9698.11 89.1399H9736.76C9740.86 89.1399 9744.78 89.6093 9748.54 90.5479C9752.29 91.4013 9755.58 92.8519 9758.39 94.8999C9761.29 96.9479 9763.6 99.6359 9765.31 102.964C9767.1 106.207 9767.99 110.217 9767.99 114.996C9767.99 118.836 9767.01 122.164 9765.05 124.98C9763.17 127.796 9761.12 130.015 9758.91 131.636C9757.37 132.745 9757.45 133.727 9759.16 134.58ZM9723.45 124.724H9735.35C9737.06 124.724 9738.43 124.084 9739.45 122.804C9740.47 121.439 9740.99 119.945 9740.99 118.324C9740.99 116.788 9740.35 115.465 9739.07 114.356C9737.87 113.247 9736.72 112.692 9735.61 112.692H9723.45C9722.6 112.692 9721.87 112.991 9721.27 113.588C9720.68 114.185 9720.38 114.911 9720.38 115.764V121.652C9720.38 122.505 9720.68 123.231 9721.27 123.828C9721.87 124.425 9722.6 124.724 9723.45 124.724ZM9736.89 145.844H9723.45C9722.6 145.844 9721.87 146.143 9721.27 146.74C9720.68 147.337 9720.38 148.063 9720.38 148.916V156.212C9720.38 157.065 9720.68 157.791 9721.27 158.388C9721.87 158.985 9722.6 159.284 9723.45 159.284H9737.79C9739.32 159.284 9740.77 158.644 9742.14 157.364C9743.5 156.084 9744.19 154.591 9744.19 152.884C9744.19 151.348 9743.5 149.812 9742.14 148.276C9740.86 146.655 9739.11 145.844 9736.89 145.844ZM9780.69 135.988C9780.69 129.332 9781.97 123.06 9784.53 117.172C9787.09 111.284 9790.54 106.164 9794.9 101.812C9799.25 97.3746 9804.37 93.8759 9810.26 91.3159C9816.14 88.7559 9822.42 87.4759 9829.07 87.4759C9835.73 87.4759 9842 88.7559 9847.89 91.3159C9853.78 93.8759 9858.9 97.3746 9863.25 101.812C9867.68 106.164 9871.18 111.284 9873.74 117.172C9876.3 123.06 9877.58 129.332 9877.58 135.988C9877.58 142.644 9876.3 148.916 9873.74 154.804C9871.18 160.692 9867.68 165.855 9863.25 170.292C9858.9 174.644 9853.78 178.1 9847.89 180.66C9842 183.22 9835.73 184.5 9829.07 184.5C9822.42 184.5 9816.14 183.22 9810.26 180.66C9804.37 178.1 9799.25 174.644 9794.9 170.292C9790.54 165.855 9787.09 160.692 9784.53 154.804C9781.97 148.916 9780.69 142.644 9780.69 135.988ZM9806.03 135.988C9806.03 139.231 9806.63 142.303 9807.82 145.204C9809.02 148.105 9810.64 150.665 9812.69 152.884C9814.82 155.103 9817.3 156.895 9820.11 158.26C9822.93 159.54 9825.91 160.18 9829.07 160.18C9832.23 160.18 9835.22 159.54 9838.03 158.26C9840.85 156.895 9843.32 155.103 9845.46 152.884C9847.59 150.665 9849.25 148.105 9850.45 145.204C9851.64 142.303 9852.24 139.231 9852.24 135.988C9852.24 132.831 9851.64 129.801 9850.45 126.9C9849.25 123.913 9847.59 121.353 9845.46 119.22C9843.32 117.001 9840.85 115.252 9838.03 113.972C9835.22 112.607 9832.23 111.924 9829.07 111.924C9825.91 111.924 9822.93 112.607 9820.11 113.972C9817.3 115.252 9814.82 117.001 9812.69 119.22C9810.64 121.353 9809.02 123.913 9807.82 126.9C9806.63 129.801 9806.03 132.831 9806.03 135.988ZM9913.06 182.836H9893.98C9893.13 182.836 9892.4 182.537 9891.81 181.94C9891.21 181.343 9890.91 180.617 9890.91 179.764V92.2119C9890.91 91.3586 9891.21 90.6333 9891.81 90.0359C9892.4 89.4386 9893.13 89.1399 9893.98 89.1399H9933.79C9938.74 89.1399 9943.31 89.9933 9947.49 91.6999C9951.67 93.3213 9955.21 95.6253 9958.11 98.6119C9961.1 101.599 9963.4 105.14 9965.02 109.236C9966.73 113.332 9967.58 117.855 9967.58 122.804C9967.58 125.535 9967.24 128.265 9966.56 130.996C9965.96 133.641 9965.07 136.159 9963.87 138.548C9962.68 140.937 9961.27 143.113 9959.65 145.076C9958.03 146.953 9956.19 148.532 9954.14 149.812C9953.46 150.324 9952.99 150.964 9952.74 151.732C9952.56 152.415 9952.74 153.097 9953.25 153.78C9956.49 158.047 9959.9 162.441 9963.49 166.964C9967.07 171.487 9970.27 175.625 9973.09 179.38C9973.6 180.063 9973.73 180.831 9973.47 181.684C9973.22 182.452 9972.66 182.836 9971.81 182.836H9948C9947.15 182.836 9946.21 182.623 9945.18 182.196C9944.24 181.684 9943.52 181.087 9943.01 180.404C9940.28 176.82 9937.55 173.193 9934.82 169.524C9932.17 165.855 9929.52 162.143 9926.88 158.388C9926.37 157.705 9925.64 157.151 9924.7 156.724C9923.76 156.212 9922.87 155.956 9922.02 155.956H9919.2C9918.35 155.956 9917.62 156.255 9917.02 156.852C9916.43 157.449 9916.13 158.175 9916.13 159.028V179.764C9916.13 180.617 9915.83 181.343 9915.23 181.94C9914.63 182.537 9913.91 182.836 9913.06 182.836ZM9919.2 132.404H9932.77C9933.79 132.404 9934.86 132.233 9935.97 131.892C9937.08 131.465 9938.1 130.868 9939.04 130.1C9939.98 129.247 9940.75 128.223 9941.34 127.028C9941.94 125.833 9942.24 124.425 9942.24 122.804C9942.24 121.951 9942.07 120.969 9941.73 119.86C9941.47 118.665 9940.96 117.556 9940.19 116.532C9939.51 115.423 9938.53 114.527 9937.25 113.844C9936.05 113.076 9934.56 112.692 9932.77 112.692H9919.2C9918.35 112.692 9917.62 112.991 9917.02 113.588C9916.43 114.185 9916.13 114.911 9916.13 115.764V129.332C9916.13 130.185 9916.43 130.911 9917.02 131.508C9917.62 132.105 9918.35 132.404 9919.2 132.404ZM10012.4 92.0839C10012.8 91.3159 10013.3 90.6759 10014.1 90.1639C10014.9 89.5666 10015.8 89.2679 10016.8 89.2679H10034.7C10035.6 89.2679 10036.4 89.5666 10037.1 90.1639C10038 90.6759 10038.6 91.3159 10038.9 92.0839L10076.3 179.124C10076.6 179.892 10076.6 180.703 10076 181.556C10075.6 182.409 10074.7 182.836 10073.4 182.836H10051.5C10050.5 182.836 10049.6 182.58 10048.8 182.068C10048 181.471 10047.4 180.788 10047 180.02L10043.5 172.34C10043.1 171.572 10042.5 170.932 10041.6 170.42C10040.8 169.823 10040 169.524 10039.2 169.524H10012.2C10011.2 169.524 10010.3 169.823 10009.5 170.42C10008.7 170.932 10008.2 171.572 10007.8 172.34L10004.2 180.02C10003.9 180.788 10003.3 181.471 10002.4 182.068C10001.7 182.58 10000.9 182.836 10000 182.836H9978C9977.57 182.836 9977.15 182.751 9976.72 182.58C9976.21 182.409 9975.82 182.153 9975.57 181.812C9975.23 181.471 9975.01 181.044 9974.93 180.532C9974.84 180.02 9974.97 179.423 9975.31 178.74L10012.4 92.0839ZM10020 147.764H10031.4C10032.2 147.764 10032.8 147.508 10033.2 146.996C10033.6 146.399 10033.6 145.716 10033.2 144.948C10032.3 142.815 10031.3 140.34 10030.1 137.524C10028.9 134.623 10027.8 131.935 10026.8 129.46C10026.4 128.692 10026 128.308 10025.6 128.308C10025.2 128.308 10024.8 128.692 10024.5 129.46L10018.1 144.948C10017.7 145.716 10017.7 146.399 10018.1 146.996C10018.4 147.508 10019 147.764 10020 147.764ZM10137 112.692H10119.1C10118.2 112.692 10117.5 112.991 10116.9 113.588C10116.3 114.185 10116 114.911 10116 115.764V179.764C10116 180.617 10115.7 181.343 10115.1 181.94C10114.6 182.537 10113.8 182.836 10112.9 182.836H10093.7C10092.9 182.836 10092.1 182.537 10091.5 181.94C10090.9 181.343 10090.6 180.617 10090.6 179.764V115.764C10090.6 114.911 10090.3 114.185 10089.7 113.588C10089.2 112.991 10088.5 112.692 10087.6 112.692H10069.4C10068.5 112.692 10067.8 112.393 10067.2 111.796C10066.6 111.199 10066.3 110.473 10066.3 109.62V92.2119C10066.3 91.3586 10066.6 90.6333 10067.2 90.0359C10067.8 89.4386 10068.5 89.1399 10069.4 89.1399H10137C10137.9 89.1399 10138.6 89.4386 10139.1 90.0359C10139.7 90.6333 10140 91.3586 10140 92.2119V109.62C10140 110.473 10139.7 111.199 10139.1 111.796C10138.6 112.393 10137.9 112.692 10137 112.692ZM10175.1 115.764V121.14C10175.1 121.993 10175.4 122.719 10176 123.316C10176.6 123.913 10177.3 124.212 10178.2 124.212H10212.9C10213.7 124.212 10214.5 124.511 10215.1 125.108C10215.7 125.705 10216 126.431 10216 127.284V144.948C10216 145.801 10215.7 146.527 10215.1 147.124C10214.5 147.721 10213.7 148.02 10212.9 148.02H10178.2C10177.3 148.02 10176.6 148.319 10176 148.916C10175.4 149.513 10175.1 150.239 10175.1 151.092V155.956C10175.1 156.809 10175.4 157.535 10176 158.132C10176.6 158.729 10177.3 159.028 10178.2 159.028H10218C10218.9 159.028 10219.6 159.327 10220.2 159.924C10220.8 160.521 10221.1 161.247 10221.1 162.1V179.764C10221.1 180.617 10220.8 181.343 10220.2 181.94C10219.6 182.537 10218.9 182.836 10218 182.836H10152.9C10152 182.836 10151.3 182.537 10150.7 181.94C10150.1 181.343 10149.8 180.617 10149.8 179.764V92.2119C10149.8 91.3586 10150.1 90.6333 10150.7 90.0359C10151.3 89.4386 10152 89.1399 10152.9 89.1399H10218C10218.9 89.1399 10219.6 89.4386 10220.2 90.0359C10220.8 90.6333 10221.1 91.3586 10221.1 92.2119V109.62C10221.1 110.473 10220.8 111.199 10220.2 111.796C10219.6 112.393 10218.9 112.692 10218 112.692H10178.2C10177.3 112.692 10176.6 112.991 10176 113.588C10175.4 114.185 10175.1 114.911 10175.1 115.764Z" fill="#231F20"/>
<path d="M10374.2 114.167L10425.3 108.417L10395 150.333L10425.7 191.75L10374.2 186.333L10353.6 233.667L10332.5 186.5L10281.3 192.25L10311.7 150.333L10281 108.917L10332.5 114.333L10353.1 67L10374.2 114.167Z" fill="#231F20"/>
<path d="M10568.8 114.167L10620 108.417L10589.7 150.333L10620.3 191.75L10568.8 186.333L10548.2 233.667L10527.2 186.5L10476 192.25L10506.3 150.333L10475.7 108.917L10527.2 114.333L10547.7 67L10568.8 114.167Z" fill="#231F20"/>
<path d="M10763.5 114.167L10814.7 108.417L10784.3 150.333L10815 191.75L10763.5 186.333L10742.9 233.667L10721.8 186.5L10670.7 192.25L10701 150.333L10670.3 108.917L10721.8 114.333L10742.4 67L10763.5 114.167Z" fill="#231F20"/>
<path d="M10958.2 114.167L11009.3 108.417L10979 150.333L11009.7 191.75L10958.2 186.333L10937.6 233.667L10916.5 186.5L10865.3 192.25L10895.7 150.333L10865 108.917L10916.5 114.333L10937.1 67L10958.2 114.167Z" fill="#231F20"/>
</svg>
