<svg width="11814" height="300" viewBox="0 0 11814 300" fill="none" xmlns="http://www.w3.org/2000/svg">
<rect width="11814" height="300" fill="#7256EB"/>
<g clip-path="url(#clip0_127_343)">
<path d="M1712 150L1562 236.603V63.3975L1712 150Z" fill="white"/>
<path d="M1862 150L1712 236.603V63.3975L1862 150Z" fill="white"/>
<path d="M2012 150L1862 236.603V63.3975L2012 150Z" fill="white"/>
</g>
<rect x="612" y="50" width="100" height="100" fill="white"/>
<rect x="712" y="150" width="100" height="100" fill="white"/>
<rect x="812" y="50" width="100" height="100" fill="white"/>
<rect x="912" y="150" width="100" height="100" fill="white"/>
<rect x="1012" y="50" width="100" height="100" fill="white"/>
<rect x="1112" y="150" width="100" height="100" fill="white"/>
<rect x="1212" y="50" width="100" height="100" fill="white"/>
<rect x="1312" y="150" width="100" height="100" fill="white"/>
<rect x="1412" y="50" width="100" height="100" fill="white"/>
<rect x="612" y="50" width="100" height="100" fill="white"/>
<path d="M88 153.98V146.269C88 113.101 95.6118 88.7645 110.835 73.2587C126.142 57.7529 146.04 50 170.53 50C194.11 50 211.609 55.597 223.026 66.791C234.444 77.9851 241.849 94.8176 245.241 117.289L245.613 125.871H204.907L204.535 115.423C202.301 106.136 198.784 97.5539 193.986 89.6766C189.187 81.7993 181.699 77.8607 171.523 77.8607C158.781 77.8607 149.101 83.6236 142.482 95.1493C135.863 106.592 132.554 121.227 132.554 139.055V161.194C132.554 182.09 135.987 197.595 142.854 207.711C149.804 217.745 159.443 222.761 171.771 222.761C183.437 222.761 191.835 218.988 196.964 211.443C202.094 203.814 204.741 194.527 204.907 183.582L205.031 175H245.613L245.489 184.95C245.158 206.177 238.581 222.347 225.757 233.458C213.015 244.486 194.648 250 170.654 250C145.171 250 125.025 242.123 110.215 226.368C95.4049 210.614 88 186.484 88 153.98Z" fill="white"/>
<path d="M265.47 246.891V53.3582H334.597C356.77 53.3582 374.393 61.2769 387.465 77.1144C400.621 92.9519 407.198 115.837 407.198 145.771V153.607C407.198 183.292 400.621 206.26 387.465 222.512C374.31 238.765 356.687 246.891 334.597 246.891H265.47ZM306.301 218.905H330.625C340.636 218.905 348.827 213.765 355.198 203.483C361.569 193.201 364.754 177.778 364.754 157.214V142.786C364.754 122.305 361.527 107.131 355.074 97.2637C348.703 87.3964 340.554 82.4627 330.625 82.4627H306.301V218.905Z" fill="white"/>
<path d="M407.57 246.891L467.513 134.95L475.58 134.328L515.79 53.3582H553.021L496.181 160.697L488.115 161.443L445.298 246.891H407.57ZM408.811 53.3582H455.475L495.313 132.96L495.561 133.706L556 246.891H509.088L466.024 161.443L465.776 160.697L408.811 53.3582Z" fill="white"/>
<g clip-path="url(#clip1_127_343)">
<path d="M3659 150L3509 236.603V63.3975L3659 150Z" fill="white"/>
<path d="M3809 150L3659 236.603V63.3975L3809 150Z" fill="white"/>
<path d="M3959 150L3809 236.603V63.3975L3959 150Z" fill="white"/>
</g>
<rect x="2559" y="50" width="100" height="100" fill="white"/>
<rect x="2659" y="150" width="100" height="100" fill="white"/>
<rect x="2759" y="50" width="100" height="100" fill="white"/>
<rect x="2859" y="150" width="100" height="100" fill="white"/>
<rect x="2959" y="50" width="100" height="100" fill="white"/>
<rect x="3059" y="150" width="100" height="100" fill="white"/>
<rect x="3159" y="50" width="100" height="100" fill="white"/>
<rect x="3259" y="150" width="100" height="100" fill="white"/>
<rect x="3359" y="50" width="100" height="100" fill="white"/>
<rect x="2559" y="50" width="100" height="100" fill="white"/>
<path d="M2035 153.98V146.269C2035 113.101 2042.61 88.7645 2057.84 73.2587C2073.14 57.7529 2093.04 50 2117.53 50C2141.11 50 2158.61 55.597 2170.03 66.791C2181.44 77.9851 2188.85 94.8176 2192.24 117.289L2192.61 125.871H2151.91L2151.53 115.423C2149.3 106.136 2145.78 97.5539 2140.99 89.6766C2136.19 81.7993 2128.7 77.8607 2118.52 77.8607C2105.78 77.8607 2096.1 83.6236 2089.48 95.1493C2082.86 106.592 2079.55 121.227 2079.55 139.055V161.194C2079.55 182.09 2082.99 197.595 2089.85 207.711C2096.8 217.745 2106.44 222.761 2118.77 222.761C2130.44 222.761 2138.83 218.988 2143.96 211.443C2149.09 203.814 2151.74 194.527 2151.91 183.582L2152.03 175H2192.61L2192.49 184.95C2192.16 206.177 2185.58 222.347 2172.76 233.458C2160.02 244.486 2141.65 250 2117.65 250C2092.17 250 2072.02 242.123 2057.21 226.368C2042.4 210.614 2035 186.484 2035 153.98Z" fill="white"/>
<path d="M2212.47 246.891V53.3582H2281.6C2303.77 53.3582 2321.39 61.2769 2334.47 77.1144C2347.62 92.9519 2354.2 115.837 2354.2 145.771V153.607C2354.2 183.292 2347.62 206.26 2334.47 222.512C2321.31 238.765 2303.69 246.891 2281.6 246.891H2212.47ZM2253.3 218.905H2277.63C2287.64 218.905 2295.83 213.765 2302.2 203.483C2308.57 193.201 2311.75 177.778 2311.75 157.214V142.786C2311.75 122.305 2308.53 107.131 2302.07 97.2637C2295.7 87.3964 2287.55 82.4627 2277.63 82.4627H2253.3V218.905Z" fill="white"/>
<path d="M2354.57 246.891L2414.51 134.95L2422.58 134.328L2462.79 53.3582H2500.02L2443.18 160.697L2435.11 161.443L2392.3 246.891H2354.57ZM2355.81 53.3582H2402.47L2442.31 132.96L2442.56 133.706L2503 246.891H2456.09L2413.02 161.443L2412.78 160.697L2355.81 53.3582Z" fill="white"/>
<g clip-path="url(#clip2_127_343)">
<path d="M5606 150L5456 236.603V63.3975L5606 150Z" fill="white"/>
<path d="M5756 150L5606 236.603V63.3975L5756 150Z" fill="white"/>
<path d="M5906 150L5756 236.603V63.3975L5906 150Z" fill="white"/>
</g>
<rect x="4506" y="50" width="100" height="100" fill="white"/>
<rect x="4606" y="150" width="100" height="100" fill="white"/>
<rect x="4706" y="50" width="100" height="100" fill="white"/>
<rect x="4806" y="150" width="100" height="100" fill="white"/>
<rect x="4906" y="50" width="100" height="100" fill="white"/>
<rect x="5006" y="150" width="100" height="100" fill="white"/>
<rect x="5106" y="50" width="100" height="100" fill="white"/>
<rect x="5206" y="150" width="100" height="100" fill="white"/>
<rect x="5306" y="50" width="100" height="100" fill="white"/>
<rect x="4506" y="50" width="100" height="100" fill="white"/>
<path d="M3982 153.98V146.269C3982 113.101 3989.61 88.7645 4004.84 73.2587C4020.14 57.7529 4040.04 50 4064.53 50C4088.11 50 4105.61 55.597 4117.03 66.791C4128.44 77.9851 4135.85 94.8176 4139.24 117.289L4139.61 125.871H4098.91L4098.53 115.423C4096.3 106.136 4092.78 97.5539 4087.99 89.6766C4083.19 81.7993 4075.7 77.8607 4065.52 77.8607C4052.78 77.8607 4043.1 83.6236 4036.48 95.1493C4029.86 106.592 4026.55 121.227 4026.55 139.055V161.194C4026.55 182.09 4029.99 197.595 4036.85 207.711C4043.8 217.745 4053.44 222.761 4065.77 222.761C4077.44 222.761 4085.83 218.988 4090.96 211.443C4096.09 203.814 4098.74 194.527 4098.91 183.582L4099.03 175H4139.61L4139.49 184.95C4139.16 206.177 4132.58 222.347 4119.76 233.458C4107.02 244.486 4088.65 250 4064.65 250C4039.17 250 4019.02 242.123 4004.21 226.368C3989.4 210.614 3982 186.484 3982 153.98Z" fill="white"/>
<path d="M4159.47 246.891V53.3582H4228.6C4250.77 53.3582 4268.39 61.2769 4281.47 77.1144C4294.62 92.9519 4301.2 115.837 4301.2 145.771V153.607C4301.2 183.292 4294.62 206.26 4281.47 222.512C4268.31 238.765 4250.69 246.891 4228.6 246.891H4159.47ZM4200.3 218.905H4224.63C4234.64 218.905 4242.83 213.765 4249.2 203.483C4255.57 193.201 4258.75 177.778 4258.75 157.214V142.786C4258.75 122.305 4255.53 107.131 4249.07 97.2637C4242.7 87.3964 4234.55 82.4627 4224.63 82.4627H4200.3V218.905Z" fill="white"/>
<path d="M4301.57 246.891L4361.51 134.95L4369.58 134.328L4409.79 53.3582H4447.02L4390.18 160.697L4382.11 161.443L4339.3 246.891H4301.57ZM4302.81 53.3582H4349.47L4389.31 132.96L4389.56 133.706L4450 246.891H4403.09L4360.02 161.443L4359.78 160.697L4302.81 53.3582Z" fill="white"/>
<g clip-path="url(#clip3_127_343)">
<path d="M7553 150L7403 236.603V63.3975L7553 150Z" fill="white"/>
<path d="M7703 150L7553 236.603V63.3975L7703 150Z" fill="white"/>
<path d="M7853 150L7703 236.603V63.3975L7853 150Z" fill="white"/>
</g>
<rect x="6453" y="50" width="100" height="100" fill="white"/>
<rect x="6553" y="150" width="100" height="100" fill="white"/>
<rect x="6653" y="50" width="100" height="100" fill="white"/>
<rect x="6753" y="150" width="100" height="100" fill="white"/>
<rect x="6853" y="50" width="100" height="100" fill="white"/>
<rect x="6953" y="150" width="100" height="100" fill="white"/>
<rect x="7053" y="50" width="100" height="100" fill="white"/>
<rect x="7153" y="150" width="100" height="100" fill="white"/>
<rect x="7253" y="50" width="100" height="100" fill="white"/>
<rect x="6453" y="50" width="100" height="100" fill="white"/>
<path d="M5929 153.98V146.269C5929 113.101 5936.61 88.7645 5951.84 73.2587C5967.14 57.7529 5987.04 50 6011.53 50C6035.11 50 6052.61 55.597 6064.03 66.791C6075.44 77.9851 6082.85 94.8176 6086.24 117.289L6086.61 125.871H6045.91L6045.53 115.423C6043.3 106.136 6039.78 97.5539 6034.99 89.6766C6030.19 81.7993 6022.7 77.8607 6012.52 77.8607C5999.78 77.8607 5990.1 83.6236 5983.48 95.1493C5976.86 106.592 5973.55 121.227 5973.55 139.055V161.194C5973.55 182.09 5976.99 197.595 5983.85 207.711C5990.8 217.745 6000.44 222.761 6012.77 222.761C6024.44 222.761 6032.83 218.988 6037.96 211.443C6043.09 203.814 6045.74 194.527 6045.91 183.582L6046.03 175H6086.61L6086.49 184.95C6086.16 206.177 6079.58 222.347 6066.76 233.458C6054.02 244.486 6035.65 250 6011.65 250C5986.17 250 5966.02 242.123 5951.21 226.368C5936.4 210.614 5929 186.484 5929 153.98Z" fill="white"/>
<path d="M6106.47 246.891V53.3582H6175.6C6197.77 53.3582 6215.39 61.2769 6228.47 77.1144C6241.62 92.9519 6248.2 115.837 6248.2 145.771V153.607C6248.2 183.292 6241.62 206.26 6228.47 222.512C6215.31 238.765 6197.69 246.891 6175.6 246.891H6106.47ZM6147.3 218.905H6171.63C6181.64 218.905 6189.83 213.765 6196.2 203.483C6202.57 193.201 6205.75 177.778 6205.75 157.214V142.786C6205.75 122.305 6202.53 107.131 6196.07 97.2637C6189.7 87.3964 6181.55 82.4627 6171.63 82.4627H6147.3V218.905Z" fill="white"/>
<path d="M6248.57 246.891L6308.51 134.95L6316.58 134.328L6356.79 53.3582H6394.02L6337.18 160.697L6329.11 161.443L6286.3 246.891H6248.57ZM6249.81 53.3582H6296.47L6336.31 132.96L6336.56 133.706L6397 246.891H6350.09L6307.02 161.443L6306.78 160.697L6249.81 53.3582Z" fill="white"/>
<g clip-path="url(#clip4_127_343)">
<path d="M9500 150L9350 236.603V63.3975L9500 150Z" fill="white"/>
<path d="M9650 150L9500 236.603V63.3975L9650 150Z" fill="white"/>
<path d="M9800 150L9650 236.603V63.3975L9800 150Z" fill="white"/>
</g>
<rect x="8400" y="50" width="100" height="100" fill="white"/>
<rect x="8500" y="150" width="100" height="100" fill="white"/>
<rect x="8600" y="50" width="100" height="100" fill="white"/>
<rect x="8700" y="150" width="100" height="100" fill="white"/>
<rect x="8800" y="50" width="100" height="100" fill="white"/>
<rect x="8900" y="150" width="100" height="100" fill="white"/>
<rect x="9000" y="50" width="100" height="100" fill="white"/>
<rect x="9100" y="150" width="100" height="100" fill="white"/>
<rect x="9200" y="50" width="100" height="100" fill="white"/>
<rect x="8400" y="50" width="100" height="100" fill="white"/>
<path d="M7876 153.98V146.269C7876 113.101 7883.61 88.7645 7898.84 73.2587C7914.14 57.7529 7934.04 50 7958.53 50C7982.11 50 7999.61 55.597 8011.03 66.791C8022.44 77.9851 8029.85 94.8176 8033.24 117.289L8033.61 125.871H7992.91L7992.53 115.423C7990.3 106.136 7986.78 97.5539 7981.99 89.6766C7977.19 81.7993 7969.7 77.8607 7959.52 77.8607C7946.78 77.8607 7937.1 83.6236 7930.48 95.1493C7923.86 106.592 7920.55 121.227 7920.55 139.055V161.194C7920.55 182.09 7923.99 197.595 7930.85 207.711C7937.8 217.745 7947.44 222.761 7959.77 222.761C7971.44 222.761 7979.83 218.988 7984.96 211.443C7990.09 203.814 7992.74 194.527 7992.91 183.582L7993.03 175H8033.61L8033.49 184.95C8033.16 206.177 8026.58 222.347 8013.76 233.458C8001.02 244.486 7982.65 250 7958.65 250C7933.17 250 7913.02 242.123 7898.21 226.368C7883.4 210.614 7876 186.484 7876 153.98Z" fill="white"/>
<path d="M8053.47 246.891V53.3582H8122.6C8144.77 53.3582 8162.39 61.2769 8175.47 77.1144C8188.62 92.9519 8195.2 115.837 8195.2 145.771V153.607C8195.2 183.292 8188.62 206.26 8175.47 222.512C8162.31 238.765 8144.69 246.891 8122.6 246.891H8053.47ZM8094.3 218.905H8118.63C8128.64 218.905 8136.83 213.765 8143.2 203.483C8149.57 193.201 8152.75 177.778 8152.75 157.214V142.786C8152.75 122.305 8149.53 107.131 8143.07 97.2637C8136.7 87.3964 8128.55 82.4627 8118.63 82.4627H8094.3V218.905Z" fill="white"/>
<path d="M8195.57 246.891L8255.51 134.95L8263.58 134.328L8303.79 53.3582H8341.02L8284.18 160.697L8276.11 161.443L8233.3 246.891H8195.57ZM8196.81 53.3582H8243.47L8283.31 132.96L8283.56 133.706L8344 246.891H8297.09L8254.02 161.443L8253.78 160.697L8196.81 53.3582Z" fill="white"/>
<g clip-path="url(#clip5_127_343)">
<path d="M11447 150L11297 236.603V63.3975L11447 150Z" fill="white"/>
<path d="M11597 150L11447 236.603V63.3975L11597 150Z" fill="white"/>
<path d="M11747 150L11597 236.603V63.3975L11747 150Z" fill="white"/>
</g>
<rect x="10347" y="50" width="100" height="100" fill="white"/>
<rect x="10447" y="150" width="100" height="100" fill="white"/>
<rect x="10547" y="50" width="100" height="100" fill="white"/>
<rect x="10647" y="150" width="100" height="100" fill="white"/>
<rect x="10747" y="50" width="100" height="100" fill="white"/>
<rect x="10847" y="150" width="100" height="100" fill="white"/>
<rect x="10947" y="50" width="100" height="100" fill="white"/>
<rect x="11047" y="150" width="100" height="100" fill="white"/>
<rect x="11147" y="50" width="100" height="100" fill="white"/>
<rect x="10347" y="50" width="100" height="100" fill="white"/>
<path d="M9823 153.98V146.269C9823 113.101 9830.61 88.7645 9845.84 73.2587C9861.14 57.7529 9881.04 50 9905.53 50C9929.11 50 9946.61 55.597 9958.03 66.791C9969.44 77.9851 9976.85 94.8176 9980.24 117.289L9980.61 125.871H9939.91L9939.53 115.423C9937.3 106.136 9933.78 97.5539 9928.99 89.6766C9924.19 81.7993 9916.7 77.8607 9906.52 77.8607C9893.78 77.8607 9884.1 83.6236 9877.48 95.1493C9870.86 106.592 9867.55 121.227 9867.55 139.055V161.194C9867.55 182.09 9870.99 197.595 9877.85 207.711C9884.8 217.745 9894.44 222.761 9906.77 222.761C9918.44 222.761 9926.83 218.988 9931.96 211.443C9937.09 203.814 9939.74 194.527 9939.91 183.582L9940.03 175H9980.61L9980.49 184.95C9980.16 206.177 9973.58 222.347 9960.76 233.458C9948.02 244.486 9929.65 250 9905.65 250C9880.17 250 9860.02 242.123 9845.21 226.368C9830.4 210.614 9823 186.484 9823 153.98Z" fill="white"/>
<path d="M10000.5 246.891V53.3582H10069.6C10091.8 53.3582 10109.4 61.2769 10122.5 77.1144C10135.6 92.9519 10142.2 115.837 10142.2 145.771V153.607C10142.2 183.292 10135.6 206.26 10122.5 222.512C10109.3 238.765 10091.7 246.891 10069.6 246.891H10000.5ZM10041.3 218.905H10065.6C10075.6 218.905 10083.8 213.765 10090.2 203.483C10096.6 193.201 10099.8 177.778 10099.8 157.214V142.786C10099.8 122.305 10096.5 107.131 10090.1 97.2637C10083.7 87.3964 10075.6 82.4627 10065.6 82.4627H10041.3V218.905Z" fill="white"/>
<path d="M10142.6 246.891L10202.5 134.95L10210.6 134.328L10250.8 53.3582H10288L10231.2 160.697L10223.1 161.443L10180.3 246.891H10142.6ZM10143.8 53.3582H10190.5L10230.3 132.96L10230.6 133.706L10291 246.891H10244.1L10201 161.443L10200.8 160.697L10143.8 53.3582Z" fill="white"/>
<defs>
<clipPath id="clip0_127_343">
<rect width="523" height="200" fill="white" transform="translate(1512 50)"/>
</clipPath>
<clipPath id="clip1_127_343">
<rect width="523" height="200" fill="white" transform="translate(3459 50)"/>
</clipPath>
<clipPath id="clip2_127_343">
<rect width="523" height="200" fill="white" transform="translate(5406 50)"/>
</clipPath>
<clipPath id="clip3_127_343">
<rect width="523" height="200" fill="white" transform="translate(7353 50)"/>
</clipPath>
<clipPath id="clip4_127_343">
<rect width="523" height="200" fill="white" transform="translate(9300 50)"/>
</clipPath>
<clipPath id="clip5_127_343">
<rect width="523" height="200" fill="white" transform="translate(11247 50)"/>
</clipPath>
</defs>
</svg>
